<svg xmlns="http://www.w3.org/2000/svg" xmlns:xlink="http://www.w3.org/1999/xlink" width="452px" height="555px" viewBox="0 0 452 555"><defs><style>.cls-1{isolation:isolate;}.cls-10,.cls-2,.cls-5,.cls-9{fill:#0c4065;}.cls-3,.cls-7,.cls-8{fill:#fff;}.cls-4{fill:url(#linear-gradient);}.cls-5{opacity:0.19;}.cls-10,.cls-5,.cls-9{mix-blend-mode:multiply;}.cls-6{fill:none;stroke:#0f3f65;stroke-linecap:round;stroke-miterlimit:10;stroke-width:3.05px;}.cls-7{opacity:0.25;}.cls-7,.cls-8{mix-blend-mode:overlay;}.cls-8{opacity:0.22;}.cls-9{opacity:0.33;}.cls-10{opacity:0.36;}.cls-11{fill:#e0e1e2;}.cls-12{fill:#043a58;}.cls-13{fill:#1480c4;}.cls-14{fill:#ef6422;}.cls-15{fill:#c7cb2d;}</style><linearGradient id="linear-gradient" x1="1889.88" y1="542.25" x2="1889.88" y2="5.53" gradientTransform="translate(-1583.51)" gradientUnits="userSpaceOnUse"><stop offset="0.13" stop-color="#0c4065"/><stop offset="0.2" stop-color="#0a4e79"/><stop offset="0.33" stop-color="#086196"/><stop offset="0.46" stop-color="#0670ac"/><stop offset="0.6" stop-color="#057bbc"/><stop offset="0.77" stop-color="#0481c5"/><stop offset="1" stop-color="#0483c8"/></linearGradient></defs><title>addgene_BG_homepageArtboard 2 copy 3</title><g class="cls-1"><g id="Layer_1" data-name="Layer 1"><path class="cls-2" d="M50.06,207.25l-1.23-3.44a5,5,0,0,1,3.05-6.46l.21-.08a5.06,5.06,0,0,1,6.47,3l1.38,3.87a24.5,24.5,0,0,0,7.22,10.41l4.78,4.06a5,5,0,0,1,.64,7.06h0a5.07,5.07,0,0,1-7.21.62L60,221.69A34.44,34.44,0,0,1,50.06,207.25Z"/><path class="cls-2" d="M45,219.46,42.3,217a5.05,5.05,0,0,1-.21-7.14l.16-.17a5,5,0,0,1,7.14-.2l3,2.81a24.49,24.49,0,0,0,11.15,6l6.1,1.45a5.06,5.06,0,0,1,3.77,6h0a5.06,5.06,0,0,1-6.14,3.82l-6.92-1.71A34.37,34.37,0,0,1,45,219.46Z"/><path class="cls-2" d="M61.35,203.28l.39-3.63a5.05,5.05,0,0,1,5.56-4.49l.23,0A5,5,0,0,1,72,200.75l-.44,4.08a24.54,24.54,0,0,0,1.94,12.52l2.54,5.74a5.06,5.06,0,0,1-2.51,6.63h0a5.06,5.06,0,0,1-6.76-2.59L64,220.59A34.34,34.34,0,0,1,61.35,203.28Z"/><path class="cls-3" d="M230,287.63S105.38,321.36,52.36,226c-.35-.63,20-15.78,20-15.78S108.46,285.87,217,263.75Z"/><path class="cls-4" d="M441.15,147.68c-3.63-4-9.9-6.6-16.61-8.25a4.47,4.47,0,0,1-2.41-7.14c8.08-10,18.09-25.39,8.1-31.68-5.51-3.48-14.13-3.91-22.42-3.2a7.79,7.79,0,0,1-8.43-7.83c.12-16,2.46-36.5-5.69-44.58-9.2-9.13-28.27,2.25-40.14,17.75-5.06,6.6-11.66,5.16-14.75-2.56-6.75-16.87-14.28-54.67-33.93-54.66-20,0-22.48,32-28.28,52-2.55,8.76-9.8,10.55-16.07,3.93-10.28-10.86-23.38-24.82-33.37-22.07-11.48,3.15-13.9,29.17-11.09,50.52a7.82,7.82,0,0,1-8.59,8.8c-9-1-18.89-.89-25,2.94-10,6.29,0,21.66,8.1,31.68a4.47,4.47,0,0,1-2.41,7.14c-6.71,1.66-13,4.23-16.61,8.25-4.91,5.44-1.46,12.16,4.37,18.25a34.69,34.69,0,0,1,9.51,23.83v.06a121.17,121.17,0,0,0,8.71,44.46,289.26,289.26,0,0,1,19.46,81.61c2.47,27.22,7.5,73.58,27.51,106.7A59.39,59.39,0,0,1,249.6,451h0c2.32,30.65,8.63,89.44,26.78,91.22,13.35,1.31,20.48-35.73,25.32-56.74a5,5,0,0,1,9.7-.05c4.89,20.41,11.65,53.44,24.61,49.67,17.89-5.2,23.23-52.27,26.83-83.18h0a110.42,110.42,0,0,1,12.73-42.36c19.08-35.22,29.09-79.78,30.67-106.75a251.63,251.63,0,0,1,15.1-71.25A121.31,121.31,0,0,0,428.62,190q0-1.38,0-2.76a30.22,30.22,0,0,1,8.32-21.49C442.66,159.73,446,153.08,441.15,147.68Z"/><path class="cls-5" d="M399.11,181.68c-5.22-46.93-21.67-85.21-91-85.29-67.47-.07-90.28,30.16-92.33,88.18-1,27.65,3.9,55.61,22.29,71,23.08,19.29,24.33,35.06,26.88,56.26,6,49.57,2.82,105.52,48.44,105.52,34.53,0,35.27-70.54,44.7-122.61,3.55-19.63,12.29-32.29,25.91-46.87C403.36,227.16,401.17,200.2,399.11,181.68Z"/><path class="cls-6" d="M248.06,179.2c.44-4.72,1.17-18.59,9.39-17.92,7.38.6,10.33,18.5,10.33,18.5"/><path class="cls-6" d="M347.93,182.77c1.1-4.61,4.33-18.62,11.8-16.42,7.11,2.08,7.65,19.76,7.65,19.76"/><path class="cls-6" d="M330.64,203.5c-13.64,7.46-34.54,7-47.72-4.93"/><path class="cls-3" d="M408.55,294.5a257.57,257.57,0,0,1,5.94-41.5c-1.16,1.68-7.91,14.13-31.33,25.77-3.3,1.64-6.94,3.27-10.93,4.84a62.52,62.52,0,0,0-38,44.38l-14.92,45.49,10.58,94.7,73.42-20.52-7.73-56.52a45.22,45.22,0,0,1,1.63-20.32C405.45,346.27,407,319.87,408.55,294.5Z"/><path class="cls-7" d="M367.48,118.36c-4.62-1-9.27-5.77-6.57-10.16,2.48-4,5.54-7.57,10.16-6.58s6.56,5.33,5.57,9.95S372.1,119.35,367.48,118.36Z"/><path class="cls-8" d="M241.28,269.19c-7.92-3.59-14.4-14-7.82-20.84,6-6.26,12.92-11.42,20.84-7.83s9.69,12.15,6.09,20.06S249.2,272.79,241.28,269.19Z"/><path class="cls-9" d="M280,276.19c-3.94-1.79-7.17-7-3.89-10.38,3-3.12,6.44-5.69,10.38-3.9s4.82,6,3,10S284,278,280,276.19Z"/><path class="cls-10" d="M341.05,123.72c-3.54-.76-7.1-4.42-5-7.78,1.9-3.08,4.24-5.79,7.78-5s5,4.08,4.26,7.61S344.59,124.48,341.05,123.72Z"/><path class="cls-8" d="M319.65,331.35c3.63-7.89,14.09-14.32,20.88-7.71,6.23,6.07,11.35,13,7.71,20.89s-12.19,9.62-20.09,6S316,339.25,319.65,331.35Z"/><path class="cls-7" d="M301.57,357c1.82-3.93,7-7.13,10.4-3.84,3.11,3,5.66,6.47,3.84,10.41s-6.07,4.79-10,3S299.76,361,301.57,357Z"/><path class="cls-8" d="M320.14,304.35c1-2.21,3.94-4,5.84-2.15,1.74,1.69,3.17,3.63,2.16,5.83s-3.41,2.7-5.62,1.68S319.12,306.56,320.14,304.35Z"/><path class="cls-11" d="M356.77,315l27.94,3.14-1.55-39.35c-3.23,1.6-6.77,3.19-10.66,4.74a63.1,63.1,0,0,0-38.28,44.76l-14.86,45.21,54.13-35.89Z"/><path class="cls-3" d="M206.41,294.5a258.69,258.69,0,0,0-5.94-41.5c1.16,1.68,7.9,14.13,31.33,25.77,3.3,1.64,6.93,3.27,10.93,4.84A62.51,62.51,0,0,1,280.67,328l14.92,45.49L284,468.18l-72.41-20.52,7.73-56.52a45.21,45.21,0,0,0-1.62-20.32C209.5,346.27,208,319.87,206.41,294.5Z"/><path class="cls-11" d="M258.19,315l-27.95,3.14,1.56-39.35c3.22,1.6,6.77,3.19,10.66,4.74a63.15,63.15,0,0,1,38.28,44.76l14.85,45.21-54.13-35.89Z"/><path class="cls-12" d="M196,218.66a115.74,115.74,0,0,0-62.77-19.14l-1.2,0A116.32,116.32,0,0,0,15.72,314c0,.63-.05,1.25-.05,1.88A116.39,116.39,0,0,0,131.85,432.16H132a116.33,116.33,0,0,0,64-213.5Zm10.39,168.46A102.69,102.69,0,0,1,132,418.88l-.69,0A103,103,0,0,1,29,315.83c0-.81,0-1.61.06-2.42A103,103,0,0,1,132,212.78l1.41,0a103,103,0,0,1,73,174.31Z"/><polygon class="cls-13" points="117.17 171.11 117.17 240.49 157.92 206.35 117.17 171.11"/><polygon class="cls-14" points="246.35 403.05 197.3 353.99 192.63 406.94 246.35 403.05"/><polygon class="cls-15" points="47.03 433.8 96.08 384.75 43.13 380.08 47.03 433.8"/><path class="cls-14" d="M200.14,212.34l-17.08,25.25a93.38,93.38,0,0,1,16.37,142.88L221,402a123.85,123.85,0,0,0-20.85-189.68Z"/><path class="cls-13" d="M132,222.4c.43,0,.85,0,1.28,0V192c-.43,0-.85,0-1.28,0A123.89,123.89,0,0,0,8.15,313.83l30.48-.2A93.41,93.41,0,0,1,132,222.4Z"/><path class="cls-15" d="M69.61,385.35,50.14,408.8a123.35,123.35,0,0,0,81.7,30.93l-.46-30.49A93.07,93.07,0,0,1,69.61,385.35Z"/><polygon class="cls-13" points="117.17 171.11 117.17 240.49 157.92 206.35 117.17 171.11"/><polygon class="cls-14" points="246.35 403.05 197.3 353.99 192.63 406.94 246.35 403.05"/><polygon class="cls-15" points="47.03 433.8 96.08 384.75 43.13 380.08 47.03 433.8"/><path class="cls-2" d="M214.23,335.44l-3-2.11a5.06,5.06,0,0,1-1.21-7.05l.14-.18a5,5,0,0,1,7-1.21l3.35,2.38a24.57,24.57,0,0,0,11.88,4.4l6.25.59a5,5,0,0,1,4.56,5.42h0a5.06,5.06,0,0,1-5.55,4.64l-7.09-.73A34.37,34.37,0,0,1,214.23,335.44Z"/><path class="cls-2" d="M217.05,348.37l-3.62-.53a5.07,5.07,0,0,1-4.27-5.74l0-.22a5.06,5.06,0,0,1,5.73-4.27l4.07.6a24.49,24.49,0,0,0,12.59-1.45l5.83-2.31a5.05,5.05,0,0,1,6.52,2.77h0a5.06,5.06,0,0,1-2.85,6.65l-6.64,2.56A34.31,34.31,0,0,1,217.05,348.37Z"/><path class="cls-2" d="M221.21,325.72l-1.77-3.2a5.06,5.06,0,0,1,2-6.87l.2-.11a5.05,5.05,0,0,1,6.86,2l2,3.6a24.57,24.57,0,0,0,8.77,9.14l5.36,3.26a5,5,0,0,1,1.74,6.87h0a5.06,5.06,0,0,1-7,1.75l-6.06-3.75A34.39,34.39,0,0,1,221.21,325.72Z"/><path class="cls-3" d="M408,295s-84,101.49-182,53.69c-.64-.32,7.4-24.42,7.4-24.42s66.59,49.14,151.86-39Z"/></g></g></svg>
