<svg id="svg" version="1.1"
  xmlns="http://www.w3.org/2000/svg"
  xmlns:xlink="http://www.w3.org/1999/xlink" width="400" height="400" viewBox="0, 0, 400,400">
  <g id="svgg">
    <path id="path0" d="M0.000 200.000 L 0.000 400.000 200.000 400.000 L 400.000 400.000 400.000 200.000 L 400.000 0.000 200.000 0.000 L 0.000 0.000 0.000 200.000 M214.600 22.000 C 215.258 22.727,215.832 22.800,220.875 22.800 C 225.439 22.800,226.466 22.907,226.655 23.400 C 226.837 23.875,227.673 24.000,230.655 24.000 C 233.637 24.000,234.473 24.125,234.655 24.600 C 234.821 25.031,235.495 25.200,237.047 25.200 C 238.713 25.200,239.365 25.383,239.893 26.000 C 240.462 26.665,241.073 26.800,243.501 26.800 C 245.731 26.800,246.480 26.942,246.655 27.400 C 246.811 27.806,247.448 28.000,248.629 28.000 C 249.944 28.000,250.474 28.190,250.786 28.775 C 251.110 29.378,251.489 29.503,252.505 29.338 C 253.498 29.177,253.990 29.326,254.567 29.963 C 255.087 30.538,255.809 30.800,256.875 30.800 C 257.884 30.800,258.505 31.009,258.655 31.400 C 258.812 31.808,259.451 32.000,260.655 32.000 C 261.859 32.000,262.499 32.192,262.655 32.600 C 262.803 32.985,263.421 33.200,264.381 33.200 C 265.368 33.200,266.122 33.472,266.600 34.000 C 266.998 34.440,267.727 34.800,268.219 34.800 C 268.712 34.800,269.218 35.070,269.345 35.400 C 269.471 35.730,270.009 36.000,270.538 36.000 C 271.068 36.000,271.726 36.270,272.000 36.600 C 272.274 36.930,272.808 37.200,273.187 37.200 C 273.566 37.200,274.202 37.560,274.600 38.000 C 275.063 38.511,275.843 38.804,276.762 38.811 C 277.819 38.819,278.509 39.137,279.367 40.011 C 280.008 40.665,280.835 41.200,281.205 41.200 C 281.574 41.200,282.202 41.560,282.600 42.000 C 282.998 42.440,283.752 42.800,284.275 42.800 C 284.797 42.800,285.329 43.070,285.455 43.400 C 285.582 43.730,286.094 44.000,286.594 44.000 C 287.093 44.000,287.726 44.270,288.000 44.600 C 288.274 44.930,288.800 45.200,289.168 45.200 C 289.537 45.200,290.460 45.824,291.219 46.587 C 291.979 47.350,292.974 47.980,293.430 47.987 C 293.887 47.994,294.786 48.630,295.428 49.400 C 296.070 50.170,296.957 50.805,297.398 50.811 C 297.839 50.817,298.725 51.357,299.367 52.011 C 300.008 52.665,300.835 53.200,301.205 53.200 C 301.574 53.200,302.759 54.100,303.838 55.199 C 304.917 56.299,306.136 57.199,306.547 57.199 C 306.957 57.200,308.523 58.460,310.027 60.000 C 311.531 61.540,313.074 62.800,313.457 62.800 C 314.380 62.800,335.985 84.389,335.993 85.319 C 335.997 85.715,337.262 87.271,338.804 88.777 C 340.458 90.392,341.522 91.739,341.398 92.062 C 341.277 92.376,342.043 93.438,343.194 94.555 C 344.297 95.625,345.200 96.802,345.200 97.170 C 345.200 97.538,345.824 98.460,346.587 99.219 C 347.350 99.979,347.980 100.961,347.987 101.402 C 347.994 101.843,348.630 102.730,349.400 103.372 C 350.170 104.014,350.805 104.913,350.811 105.370 C 350.817 105.826,351.357 106.725,352.011 107.367 C 352.665 108.008,353.200 108.835,353.200 109.205 C 353.200 109.574,353.560 110.202,354.000 110.600 C 354.440 110.998,354.800 111.662,354.800 112.075 C 354.800 112.489,355.333 113.348,355.985 113.986 C 356.637 114.623,357.285 115.600,357.425 116.156 C 357.564 116.712,357.931 117.377,358.239 117.633 C 358.548 117.889,358.800 118.507,358.800 119.006 C 358.800 119.506,359.070 120.018,359.400 120.145 C 359.730 120.271,360.000 120.824,360.000 121.373 C 360.000 121.962,360.328 122.547,360.800 122.800 C 361.250 123.041,361.600 123.638,361.600 124.165 C 361.600 124.680,361.870 125.326,362.200 125.600 C 362.530 125.874,362.800 126.507,362.800 127.006 C 362.800 127.506,363.070 128.018,363.400 128.145 C 363.791 128.295,364.000 128.916,364.000 129.925 C 364.000 130.968,364.262 131.713,364.800 132.200 C 365.240 132.598,365.600 133.234,365.600 133.613 C 365.600 133.992,365.870 134.526,366.200 134.800 C 366.546 135.087,366.800 135.960,366.800 136.862 C 366.800 137.882,367.008 138.505,367.400 138.655 C 367.806 138.811,368.000 139.448,368.000 140.629 C 368.000 141.962,368.188 142.472,368.800 142.800 C 369.387 143.114,369.600 143.638,369.600 144.765 C 369.600 145.643,369.857 146.515,370.200 146.800 C 370.546 147.087,370.800 147.960,370.800 148.862 C 370.800 149.882,371.008 150.505,371.400 150.655 C 371.834 150.822,372.000 151.502,372.000 153.111 C 372.000 154.606,372.214 155.573,372.651 156.057 C 373.034 156.479,373.343 157.612,373.400 158.800 C 373.457 159.988,373.766 161.121,374.149 161.543 C 374.621 162.065,374.800 163.039,374.800 165.089 C 374.800 167.231,374.945 167.970,375.400 168.145 C 375.879 168.328,376.000 169.197,376.000 172.456 C 376.000 175.781,376.130 176.680,376.700 177.311 C 377.317 177.992,377.400 179.022,377.400 185.999 C 377.400 192.976,377.483 194.007,378.100 194.689 C 379.083 195.776,379.135 204.166,378.166 205.238 C 377.640 205.818,377.496 207.478,377.326 214.870 C 377.164 221.949,377.005 223.866,376.561 224.120 C 376.133 224.364,376.000 225.484,376.000 228.832 C 376.000 232.368,375.883 233.270,375.400 233.455 C 374.941 233.631,374.800 234.385,374.800 236.655 C 374.800 238.926,374.659 239.679,374.200 239.855 C 373.763 240.023,373.600 240.710,373.600 242.381 C 373.600 244.168,373.423 244.836,372.800 245.400 C 372.189 245.953,372.000 246.632,372.000 248.275 C 372.000 249.817,371.830 250.490,371.400 250.655 C 371.022 250.800,370.800 251.413,370.800 252.311 C 370.800 253.095,370.506 254.062,370.147 254.458 C 369.788 254.855,369.456 255.814,369.409 256.590 C 369.362 257.366,369.025 258.330,368.662 258.732 C 368.297 259.135,368.000 260.128,368.000 260.944 C 368.000 261.892,367.784 262.508,367.400 262.655 C 367.013 262.804,366.800 263.422,366.800 264.394 C 366.800 265.246,366.539 266.118,366.200 266.400 C 365.870 266.674,365.600 267.324,365.600 267.846 C 365.600 268.367,365.240 269.018,364.800 269.293 C 364.202 269.666,364.000 270.226,364.000 271.509 C 364.000 272.665,363.804 273.300,363.400 273.455 C 363.070 273.582,362.800 274.076,362.800 274.554 C 362.800 275.031,362.440 275.730,362.000 276.107 C 361.560 276.484,361.200 277.132,361.200 277.547 C 361.200 277.962,360.930 278.526,360.600 278.800 C 360.270 279.074,360.000 279.707,360.000 280.206 C 360.000 280.706,359.730 281.218,359.400 281.345 C 359.070 281.471,358.800 281.991,358.800 282.499 C 358.800 283.007,358.444 283.727,358.008 284.100 C 357.573 284.473,357.309 285.019,357.422 285.314 C 357.536 285.609,357.262 286.182,356.814 286.587 C 356.366 286.992,356.000 287.712,356.000 288.187 C 356.000 288.676,355.495 289.423,354.835 289.911 C 354.190 290.388,353.548 291.326,353.397 292.013 C 353.247 292.696,352.872 293.351,352.562 293.470 C 352.253 293.588,352.000 294.083,352.000 294.568 C 352.000 295.053,351.460 295.968,350.800 296.600 C 350.140 297.232,349.600 298.122,349.600 298.577 C 349.600 299.034,348.973 299.928,348.200 300.572 C 347.386 301.250,346.800 302.104,346.800 302.610 C 346.800 303.143,346.023 304.196,344.800 305.323 C 343.700 306.336,342.800 307.493,342.800 307.893 C 342.800 308.294,341.537 309.875,339.994 311.406 C 338.450 312.938,337.277 314.424,337.387 314.710 C 337.637 315.362,314.136 338.800,313.231 338.800 C 312.871 338.800,311.417 339.970,310.000 341.400 C 308.583 342.830,307.108 344.000,306.723 344.000 C 306.338 344.000,305.147 344.900,304.075 346.000 C 303.004 347.100,301.820 348.000,301.444 348.000 C 301.068 348.000,300.112 348.630,299.319 349.400 C 298.526 350.170,297.580 350.800,297.217 350.800 C 296.854 350.800,295.946 351.430,295.200 352.200 C 294.454 352.970,293.473 353.608,293.022 353.617 C 292.570 353.626,291.758 354.166,291.219 354.817 C 290.679 355.468,289.864 356.000,289.408 356.000 C 288.951 356.000,288.270 356.360,287.893 356.800 C 287.516 357.240,286.868 357.600,286.453 357.600 C 286.038 357.600,285.474 357.870,285.200 358.200 C 284.926 358.530,284.293 358.800,283.794 358.800 C 283.294 358.800,282.782 359.070,282.655 359.400 C 282.529 359.730,281.976 360.000,281.427 360.000 C 280.838 360.000,280.253 360.328,280.000 360.800 C 279.759 361.250,279.162 361.600,278.635 361.600 C 278.120 361.600,277.474 361.870,277.200 362.200 C 276.926 362.530,276.293 362.800,275.794 362.800 C 275.294 362.800,274.782 363.070,274.655 363.400 C 274.529 363.730,273.964 364.000,273.400 364.000 C 272.836 364.000,272.276 364.259,272.154 364.576 C 272.033 364.892,271.421 365.264,270.794 365.401 C 270.168 365.539,269.441 365.910,269.179 366.226 C 268.917 366.542,268.293 366.800,267.794 366.800 C 267.294 366.800,266.782 367.070,266.655 367.400 C 266.505 367.792,265.882 368.000,264.862 368.000 C 264.002 368.000,263.090 368.250,262.836 368.557 C 262.582 368.863,261.585 369.231,260.620 369.376 C 259.655 369.521,258.649 369.900,258.384 370.220 C 258.119 370.539,257.224 370.800,256.394 370.800 C 255.422 370.800,254.804 371.013,254.655 371.400 C 254.505 371.791,253.884 372.000,252.875 372.000 C 251.832 372.000,251.087 372.262,250.600 372.800 C 250.123 373.327,249.368 373.600,248.387 373.600 C 247.551 373.600,246.679 373.863,246.400 374.200 C 246.073 374.594,245.180 374.800,243.794 374.800 C 242.289 374.800,241.620 374.972,241.455 375.400 C 241.280 375.856,240.536 376.000,238.344 376.000 C 236.161 376.000,235.275 376.170,234.690 376.700 C 234.097 377.236,233.124 377.416,230.524 377.469 C 228.072 377.519,226.938 377.713,226.434 378.169 C 225.897 378.656,224.816 378.800,221.711 378.800 C 218.502 378.800,217.639 378.922,217.455 379.400 C 217.107 380.308,179.004 380.308,178.655 379.400 C 178.471 378.920,177.593 378.800,174.262 378.800 C 171.166 378.800,169.978 378.655,169.630 378.236 C 169.324 377.867,167.855 377.574,165.391 377.389 C 162.967 377.207,161.456 376.909,161.161 376.553 C 160.874 376.207,159.892 376.000,158.538 376.000 C 156.984 376.000,156.310 375.831,156.145 375.400 C 155.979 374.968,155.302 374.800,153.720 374.800 C 152.119 374.800,151.246 374.580,150.492 373.986 C 149.676 373.344,149.111 373.224,147.819 373.418 C 146.476 373.619,146.046 373.514,145.429 372.832 C 144.922 372.272,144.187 372.000,143.181 372.000 C 142.221 372.000,141.603 371.785,141.455 371.400 C 141.305 371.009,140.684 370.800,139.675 370.800 C 138.617 370.800,137.887 370.538,137.378 369.975 C 136.952 369.505,136.322 369.232,135.910 369.339 C 135.471 369.454,135.030 369.229,134.781 368.764 C 134.474 368.191,133.935 368.000,132.629 368.000 C 131.448 368.000,130.811 367.806,130.655 367.400 C 130.529 367.070,129.978 366.800,129.432 366.800 C 128.886 366.800,128.296 366.557,128.120 366.261 C 127.944 365.964,127.103 365.612,126.250 365.478 C 125.398 365.344,124.394 364.957,124.019 364.617 C 123.644 364.278,122.941 364.000,122.456 364.000 C 121.971 364.000,121.471 363.730,121.345 363.400 C 121.218 363.070,120.706 362.800,120.206 362.800 C 119.707 362.800,119.074 362.530,118.800 362.200 C 118.526 361.870,117.992 361.600,117.613 361.600 C 117.234 361.600,116.598 361.240,116.200 360.800 C 115.802 360.360,115.048 360.000,114.525 360.000 C 114.003 360.000,113.471 359.730,113.345 359.400 C 113.218 359.070,112.719 358.800,112.236 358.800 C 111.752 358.800,110.746 358.170,110.000 357.400 C 109.254 356.630,108.248 356.000,107.764 356.000 C 107.281 356.000,106.782 355.730,106.655 355.400 C 106.529 355.070,106.013 354.800,105.510 354.800 C 104.954 354.800,104.138 354.252,103.428 353.400 C 102.786 352.630,101.887 351.994,101.430 351.987 C 100.974 351.980,99.975 351.346,99.211 350.579 C 98.446 349.811,97.607 349.265,97.346 349.365 C 97.085 349.466,95.927 348.586,94.774 347.410 C 93.594 346.207,92.442 345.362,92.140 345.478 C 91.839 345.594,90.724 344.786,89.604 343.642 C 88.504 342.519,87.288 341.598,86.902 341.595 C 86.516 341.593,84.049 339.433,81.420 336.795 C 78.791 334.158,76.339 332.000,75.971 332.000 C 75.123 332.000,68.000 324.817,68.000 323.962 C 68.000 323.612,65.932 321.272,63.405 318.762 C 60.877 316.253,58.807 313.879,58.805 313.486 C 58.802 313.094,57.634 311.613,56.210 310.195 C 54.785 308.777,53.512 307.188,53.380 306.663 C 53.248 306.138,52.427 305.033,51.556 304.207 C 50.684 303.381,49.735 302.141,49.447 301.453 C 49.159 300.764,48.448 299.750,47.868 299.200 C 47.288 298.650,46.811 297.801,46.807 297.314 C 46.803 296.827,46.456 296.244,46.036 296.019 C 45.562 295.766,45.345 295.330,45.465 294.872 C 45.594 294.378,45.186 293.719,44.229 292.879 C 43.443 292.189,42.800 291.287,42.800 290.874 C 42.800 290.462,42.434 289.793,41.987 289.389 C 41.540 288.984,41.224 288.363,41.284 288.008 C 41.344 287.652,40.810 286.792,40.097 286.094 C 39.383 285.397,38.800 284.489,38.800 284.075 C 38.800 283.662,38.440 282.998,38.000 282.600 C 37.560 282.202,37.200 281.566,37.200 281.187 C 37.200 280.808,36.930 280.274,36.600 280.000 C 36.270 279.726,36.000 279.093,36.000 278.594 C 36.000 278.094,35.730 277.582,35.400 277.455 C 35.009 277.305,34.800 276.684,34.800 275.675 C 34.800 274.632,34.538 273.887,34.000 273.400 C 33.560 273.002,33.200 272.273,33.200 271.781 C 33.200 271.288,32.930 270.782,32.600 270.655 C 32.270 270.529,32.000 269.964,32.000 269.400 C 32.000 268.836,31.730 268.271,31.400 268.145 C 30.994 267.989,30.800 267.352,30.800 266.171 C 30.800 264.838,30.612 264.328,30.000 264.000 C 29.550 263.759,29.200 263.162,29.200 262.635 C 29.200 262.120,28.930 261.474,28.600 261.200 C 28.254 260.913,28.000 260.040,28.000 259.138 C 28.000 258.118,27.792 257.495,27.400 257.345 C 26.961 257.176,26.800 256.485,26.800 254.771 C 26.800 252.838,26.660 252.353,26.000 252.000 C 25.413 251.686,25.200 251.162,25.200 250.035 C 25.200 249.157,24.943 248.285,24.600 248.000 C 24.194 247.663,24.000 246.758,24.000 245.194 C 24.000 243.511,23.837 242.823,23.400 242.655 C 22.941 242.479,22.800 241.723,22.800 239.427 C 22.800 236.838,22.691 236.370,22.000 236.000 C 21.293 235.621,21.200 235.162,21.200 232.035 C 21.200 229.379,21.051 228.374,20.600 228.000 C 20.113 227.596,20.000 226.313,20.000 221.194 C 20.000 215.956,19.898 214.847,19.400 214.655 C 18.498 214.309,18.498 188.748,19.400 188.000 C 19.885 187.597,20.000 186.336,20.000 181.400 C 20.000 176.653,20.125 175.195,20.561 174.833 C 20.942 174.516,21.166 173.234,21.261 170.825 C 21.366 168.155,21.572 167.093,22.100 166.510 C 22.617 165.939,22.800 165.051,22.800 163.117 C 22.800 161.277,22.978 160.350,23.400 160.000 C 23.788 159.678,24.000 158.790,24.000 157.483 C 24.000 156.121,24.228 155.211,24.700 154.689 C 25.194 154.144,25.376 153.352,25.318 152.004 C 25.255 150.544,25.420 149.925,26.018 149.384 C 26.538 148.913,26.800 148.156,26.800 147.125 C 26.800 146.116,27.009 145.495,27.400 145.345 C 27.804 145.190,28.000 144.555,28.000 143.400 C 28.000 142.245,28.196 141.610,28.600 141.455 C 28.991 141.305,29.200 140.684,29.200 139.675 C 29.200 138.632,29.462 137.887,30.000 137.400 C 30.528 136.922,30.800 136.168,30.800 135.181 C 30.800 134.221,31.015 133.603,31.400 133.455 C 31.730 133.329,32.000 132.791,32.000 132.262 C 32.000 131.732,32.270 131.074,32.600 130.800 C 32.930 130.526,33.200 129.962,33.200 129.547 C 33.200 129.132,33.560 128.484,34.000 128.107 C 34.440 127.730,34.800 127.031,34.800 126.554 C 34.800 126.076,35.070 125.582,35.400 125.455 C 35.808 125.299,36.000 124.659,36.000 123.455 C 36.000 122.251,36.192 121.612,36.600 121.455 C 36.930 121.329,37.200 120.788,37.200 120.254 C 37.200 119.645,37.722 118.825,38.600 118.054 C 39.370 117.378,40.000 116.481,40.000 116.061 C 40.000 115.641,40.270 115.074,40.600 114.800 C 40.930 114.526,41.200 113.962,41.200 113.547 C 41.200 113.132,41.560 112.484,42.000 112.107 C 42.440 111.730,42.800 111.044,42.800 110.581 C 42.800 110.108,43.414 109.228,44.200 108.572 C 44.998 107.907,45.600 107.037,45.600 106.551 C 45.600 106.082,45.870 105.474,46.200 105.200 C 46.530 104.926,46.808 104.319,46.817 103.851 C 46.826 103.383,47.366 102.558,48.017 102.019 C 48.668 101.479,49.200 100.658,49.200 100.195 C 49.200 99.695,50.014 98.604,51.200 97.515 C 52.300 96.505,53.200 95.341,53.200 94.929 C 53.200 94.516,54.460 92.928,56.000 91.400 C 57.540 89.872,58.800 88.318,58.800 87.947 C 58.800 87.068,84.689 61.183,85.325 61.426 C 85.591 61.529,87.062 60.350,88.594 58.806 C 90.125 57.263,91.680 56.000,92.049 56.000 C 92.418 56.000,93.350 55.370,94.120 54.600 C 94.890 53.830,95.861 53.200,96.279 53.200 C 96.696 53.200,97.479 52.668,98.019 52.017 C 98.558 51.366,99.370 50.826,99.822 50.817 C 100.273 50.808,101.254 50.170,102.000 49.400 C 102.746 48.630,103.646 48.000,104.000 48.000 C 104.354 48.000,105.254 47.370,106.000 46.600 C 106.788 45.787,107.749 45.200,108.291 45.200 C 108.805 45.200,109.329 44.930,109.455 44.600 C 109.582 44.270,110.081 44.000,110.564 44.000 C 111.048 44.000,112.054 43.370,112.800 42.600 C 113.546 41.830,114.552 41.200,115.036 41.200 C 115.519 41.200,116.018 40.930,116.145 40.600 C 116.271 40.270,116.836 40.000,117.400 40.000 C 117.964 40.000,118.529 39.730,118.655 39.400 C 118.782 39.070,119.288 38.800,119.781 38.800 C 120.273 38.800,121.002 38.440,121.400 38.000 C 121.798 37.560,122.527 37.200,123.019 37.200 C 123.512 37.200,124.018 36.930,124.145 36.600 C 124.295 36.208,124.918 36.000,125.938 36.000 C 126.840 36.000,127.713 35.746,128.000 35.400 C 128.274 35.070,128.808 34.800,129.187 34.800 C 129.566 34.800,130.208 34.433,130.614 33.985 C 131.143 33.400,131.649 33.235,132.402 33.400 C 133.120 33.558,133.781 33.373,134.489 32.816 C 135.060 32.367,135.884 32.000,136.320 32.000 C 136.757 32.000,137.218 31.730,137.345 31.400 C 137.492 31.016,138.108 30.800,139.056 30.800 C 139.895 30.800,140.866 30.502,141.297 30.112 C 141.715 29.734,142.701 29.402,143.489 29.374 C 144.311 29.346,145.125 29.043,145.404 28.662 C 145.756 28.181,146.507 28.000,148.157 28.000 C 149.804 28.000,150.488 27.836,150.655 27.400 C 150.823 26.964,151.507 26.800,153.154 26.800 C 154.927 26.800,155.572 26.625,156.107 26.000 C 156.639 25.379,157.287 25.200,159.009 25.200 C 160.610 25.200,161.289 25.033,161.455 24.600 C 161.637 24.125,162.473 24.000,165.455 24.000 C 168.437 24.000,169.273 23.875,169.455 23.400 C 169.645 22.907,170.665 22.800,175.181 22.800 C 180.168 22.800,180.743 22.726,181.400 22.000 C 182.101 21.226,182.632 21.200,198.000 21.200 C 213.368 21.200,213.899 21.226,214.600 22.000 M329.200 118.200 C 328.873 118.594,327.981 118.800,326.600 118.800 C 325.219 118.800,324.327 119.006,324.000 119.400 C 323.726 119.730,323.093 120.000,322.594 120.000 C 322.094 120.000,321.582 120.270,321.455 120.600 C 321.329 120.930,320.777 121.200,320.230 121.200 C 319.571 121.200,318.856 121.674,318.117 122.600 C 317.503 123.370,316.636 124.000,316.192 124.000 C 315.035 124.000,308.000 131.145,308.000 132.320 C 308.000 132.818,307.730 133.329,307.400 133.455 C 307.070 133.582,306.800 134.107,306.800 134.623 C 306.800 135.138,306.501 135.727,306.137 135.931 C 305.093 136.516,305.042 147.072,306.079 147.960 C 306.475 148.300,306.800 148.918,306.800 149.335 C 306.800 150.424,311.151 154.800,312.234 154.800 C 312.718 154.800,313.218 155.070,313.345 155.400 C 313.532 155.889,314.495 156.000,318.538 156.000 C 322.463 156.000,323.606 155.874,324.000 155.400 C 324.274 155.070,324.814 154.800,325.200 154.800 C 325.586 154.800,326.111 154.548,326.367 154.239 C 326.623 153.931,327.320 153.558,327.916 153.411 C 328.512 153.263,329.485 152.616,330.077 151.971 C 330.670 151.327,331.486 150.800,331.890 150.800 C 332.805 150.800,337.200 146.420,337.200 145.508 C 337.200 145.140,337.830 144.227,338.600 143.479 C 339.370 142.731,340.000 141.727,340.000 141.247 C 340.000 140.767,340.270 140.271,340.600 140.145 C 340.930 140.018,341.200 139.512,341.200 139.019 C 341.200 138.527,341.560 137.798,342.000 137.400 C 342.605 136.852,342.800 136.168,342.800 134.587 C 342.800 133.218,343.007 132.326,343.400 132.000 C 343.833 131.641,344.000 130.691,344.000 128.594 C 344.000 126.378,343.857 125.631,343.400 125.455 C 343.015 125.308,342.800 124.690,342.800 123.734 C 342.800 121.990,341.184 120.000,339.768 120.000 C 339.283 120.000,338.782 119.730,338.655 119.400 C 338.505 119.008,337.882 118.800,336.862 118.800 C 335.960 118.800,335.087 118.546,334.800 118.200 C 334.463 117.794,333.558 117.600,332.000 117.600 C 330.442 117.600,329.537 117.794,329.200 118.200 M245.455 123.400 C 245.300 123.804,244.665 124.000,243.509 124.000 C 242.256 124.000,241.664 124.205,241.318 124.760 C 240.991 125.284,240.384 125.520,239.367 125.520 C 237.774 125.520,226.800 135.748,226.800 137.232 C 226.800 137.586,225.900 138.814,224.800 139.961 C 223.700 141.108,222.800 142.329,222.800 142.673 C 222.800 143.018,221.454 144.642,219.808 146.282 L 216.816 149.264 211.308 149.478 C 207.442 149.628,205.612 149.857,205.169 150.246 C 204.736 150.626,203.460 150.800,201.111 150.800 C 198.435 150.800,197.635 150.931,197.455 151.400 C 197.287 151.838,196.598 152.000,194.901 152.000 C 193.073 152.000,192.432 152.170,191.893 152.800 C 191.516 153.240,190.868 153.600,190.453 153.600 C 190.038 153.600,189.474 153.870,189.200 154.200 C 188.926 154.530,188.391 154.800,188.011 154.800 C 187.106 154.800,178.800 163.041,178.800 163.939 C 178.800 164.319,177.900 165.517,176.800 166.600 C 175.700 167.683,174.800 168.864,174.800 169.224 C 174.800 169.583,174.170 170.526,173.400 171.319 C 172.630 172.112,172.000 173.093,172.000 173.499 C 172.000 173.905,171.468 174.679,170.817 175.219 C 170.166 175.758,169.626 176.577,169.617 177.038 C 169.608 177.499,169.240 178.202,168.800 178.600 C 168.360 178.998,168.000 179.701,168.000 180.162 C 168.000 180.642,167.395 181.483,166.583 182.131 C 165.576 182.934,165.233 183.474,165.399 183.997 C 165.552 184.479,165.336 184.939,164.773 185.334 C 163.610 186.148,164.127 186.800,165.935 186.800 C 166.928 186.800,167.650 186.534,168.108 185.999 C 168.769 185.227,169.217 185.201,180.297 185.299 L 191.800 185.400 191.918 186.408 C 191.999 187.107,191.662 187.774,190.818 188.583 C 190.148 189.225,189.596 190.121,189.591 190.575 C 189.586 191.057,188.754 192.126,187.591 193.146 C 186.394 194.197,185.600 195.226,185.600 195.730 C 185.600 196.213,184.755 197.373,183.600 198.474 C 182.500 199.524,181.600 200.702,181.600 201.094 C 181.600 201.997,160.830 222.800,159.928 222.800 C 159.562 222.800,157.853 224.217,156.131 225.950 C 154.409 227.682,152.550 229.231,152.000 229.391 C 151.450 229.552,150.206 230.520,149.236 231.542 C 148.266 232.564,147.214 233.343,146.899 233.274 C 146.584 233.205,145.277 234.150,143.993 235.374 C 142.710 236.598,141.398 237.600,141.079 237.600 C 140.759 237.600,140.274 237.870,140.000 238.200 C 139.726 238.530,139.114 238.800,138.640 238.800 C 138.166 238.800,137.313 239.330,136.744 239.979 C 136.175 240.627,135.242 241.275,134.671 241.418 C 134.100 241.561,133.423 241.931,133.167 242.239 C 132.911 242.548,132.293 242.800,131.794 242.800 C 131.294 242.800,130.782 243.070,130.655 243.400 C 130.529 243.730,129.976 244.000,129.427 244.000 C 128.838 244.000,128.253 244.328,128.000 244.800 C 127.759 245.250,127.162 245.600,126.635 245.600 C 126.120 245.600,125.474 245.870,125.200 246.200 C 124.926 246.530,124.293 246.800,123.794 246.800 C 123.294 246.800,122.782 247.070,122.655 247.400 C 122.505 247.791,121.884 248.000,120.875 248.000 C 119.817 248.000,119.087 248.262,118.579 248.823 C 118.062 249.394,117.438 249.613,116.545 249.536 C 115.756 249.468,114.962 249.692,114.497 250.112 C 113.213 251.274,96.869 251.140,95.858 249.959 C 95.342 249.356,94.807 249.167,93.968 249.290 C 93.179 249.406,92.584 249.224,92.137 248.731 C 91.774 248.329,91.144 248.000,90.738 248.000 C 89.780 248.000,86.800 245.020,86.800 244.062 C 86.800 243.656,86.440 242.998,86.000 242.600 C 85.560 242.202,85.200 241.566,85.200 241.187 C 85.200 240.808,84.930 240.274,84.600 240.000 C 83.728 239.276,83.740 231.751,84.614 230.784 C 84.952 230.411,85.267 229.407,85.314 228.553 C 85.397 227.046,85.448 226.996,87.000 226.870 C 87.880 226.799,88.915 226.456,89.300 226.109 C 89.684 225.761,90.661 225.437,91.469 225.388 C 92.277 225.338,93.152 225.006,93.414 224.649 C 93.720 224.230,94.479 224.000,95.557 224.000 C 96.671 224.000,97.302 223.801,97.455 223.400 C 97.582 223.070,98.076 222.800,98.554 222.800 C 99.031 222.800,99.730 222.440,100.107 222.000 C 100.575 221.454,101.287 221.200,102.353 221.200 C 103.372 221.200,103.994 220.992,104.145 220.600 C 104.271 220.270,104.836 220.000,105.400 220.000 C 105.964 220.000,106.529 219.730,106.655 219.400 C 106.799 219.025,107.409 218.800,108.280 218.800 C 109.068 218.800,110.116 218.452,110.691 218.000 C 111.250 217.560,112.049 217.200,112.466 217.200 C 112.884 217.200,113.329 216.930,113.455 216.600 C 113.582 216.270,114.094 216.000,114.594 216.000 C 115.093 216.000,115.726 215.730,116.000 215.400 C 116.274 215.070,116.814 214.800,117.200 214.800 C 117.586 214.800,118.117 214.542,118.379 214.226 C 118.641 213.910,119.370 213.538,120.000 213.400 C 120.630 213.262,121.359 212.890,121.621 212.574 C 121.883 212.258,122.414 212.000,122.800 212.000 C 123.186 212.000,123.726 211.730,124.000 211.400 C 124.274 211.070,124.763 210.800,125.086 210.800 C 125.409 210.800,126.131 210.440,126.691 210.000 C 127.250 209.560,128.022 209.200,128.405 209.200 C 128.788 209.200,129.326 208.930,129.600 208.600 C 129.874 208.270,130.401 208.000,130.771 208.000 C 131.140 208.000,132.054 207.370,132.800 206.600 C 133.546 205.830,134.527 205.192,134.978 205.183 C 135.430 205.174,136.242 204.634,136.781 203.983 C 137.321 203.332,138.119 202.800,138.555 202.800 C 138.991 202.800,140.215 201.900,141.275 200.800 C 142.335 199.700,143.519 198.800,143.906 198.800 C 144.826 198.800,156.000 187.604,156.000 186.683 C 156.000 186.294,156.630 185.397,157.400 184.690 C 158.170 183.984,158.800 183.019,158.800 182.546 C 158.800 182.073,159.070 181.582,159.400 181.455 C 159.730 181.329,160.000 180.791,160.000 180.262 C 160.000 179.732,160.270 179.074,160.600 178.800 C 160.930 178.526,161.200 177.962,161.200 177.547 C 161.200 177.132,161.560 176.484,162.000 176.107 C 162.665 175.538,162.800 174.927,162.800 172.499 C 162.800 170.269,162.942 169.520,163.400 169.345 C 163.735 169.216,164.000 168.622,164.000 168.000 C 164.000 167.378,163.735 166.784,163.400 166.655 C 162.970 166.490,162.800 165.817,162.800 164.275 C 162.800 162.620,162.612 161.954,161.986 161.387 C 161.538 160.982,161.266 160.404,161.382 160.102 C 161.674 159.342,158.293 156.000,157.232 156.000 C 156.760 156.000,156.271 155.730,156.145 155.400 C 156.018 155.070,155.506 154.800,155.006 154.800 C 154.507 154.800,153.880 154.537,153.613 154.216 C 153.346 153.894,152.067 153.512,150.771 153.365 C 149.474 153.218,148.208 152.851,147.958 152.549 C 147.110 151.528,131.529 151.773,130.579 152.823 C 129.927 153.544,129.418 153.635,126.455 153.564 C 123.715 153.498,122.984 153.608,122.593 154.141 C 122.284 154.564,121.535 154.800,120.499 154.800 C 119.434 154.800,118.807 155.004,118.655 155.400 C 118.505 155.791,117.884 156.000,116.875 156.000 C 115.832 156.000,115.087 156.262,114.600 156.800 C 114.123 157.327,113.368 157.600,112.387 157.600 C 111.551 157.600,110.679 157.863,110.400 158.200 C 110.126 158.530,109.586 158.800,109.200 158.800 C 108.814 158.800,108.274 159.070,108.000 159.400 C 107.726 159.730,107.117 160.000,106.647 160.000 C 106.177 160.000,105.568 160.360,105.293 160.800 C 105.018 161.240,104.367 161.600,103.846 161.600 C 103.324 161.600,102.674 161.870,102.400 162.200 C 102.126 162.530,101.586 162.800,101.200 162.800 C 100.814 162.800,100.274 163.070,100.000 163.400 C 99.726 163.730,99.159 164.000,98.739 164.000 C 98.319 164.000,97.397 164.630,96.690 165.400 C 95.984 166.170,95.031 166.800,94.572 166.800 C 94.109 166.800,93.221 167.422,92.572 168.200 C 91.930 168.970,91.038 169.600,90.591 169.600 C 90.120 169.600,88.690 170.696,87.200 172.200 C 85.783 173.630,84.319 174.800,83.946 174.800 C 83.061 174.800,70.800 187.064,70.800 187.950 C 70.800 188.324,69.900 189.517,68.800 190.600 C 67.700 191.683,66.800 192.855,66.800 193.204 C 66.800 193.553,66.176 194.460,65.413 195.219 C 64.650 195.979,64.020 196.942,64.013 197.360 C 64.006 197.777,63.377 198.725,62.615 199.465 C 61.853 200.205,61.319 201.044,61.429 201.330 C 61.538 201.616,61.262 202.182,60.814 202.587 C 60.366 202.992,60.000 203.752,60.000 204.275 C 60.000 204.797,59.730 205.329,59.400 205.455 C 59.070 205.582,58.800 206.122,58.800 206.655 C 58.800 207.189,58.530 207.729,58.200 207.855 C 57.794 208.011,57.600 208.648,57.600 209.829 C 57.600 211.162,57.412 211.672,56.800 212.000 C 56.328 212.253,56.000 212.838,56.000 213.427 C 56.000 213.976,55.730 214.529,55.400 214.655 C 54.960 214.824,54.800 215.518,54.800 217.255 C 54.800 218.993,54.640 219.687,54.200 219.855 C 53.761 220.024,53.600 220.716,53.600 222.439 C 53.600 224.360,53.453 224.885,52.800 225.293 C 51.686 225.989,51.539 246.102,52.643 246.720 C 53.092 246.971,53.326 247.785,53.416 249.409 C 53.505 251.006,53.743 251.848,54.173 252.089 C 54.592 252.323,54.800 253.015,54.800 254.177 C 54.800 255.352,54.994 255.989,55.400 256.145 C 55.730 256.271,56.000 256.824,56.000 257.373 C 56.000 257.962,56.328 258.547,56.800 258.800 C 57.250 259.041,57.600 259.638,57.600 260.165 C 57.600 260.680,57.870 261.326,58.200 261.600 C 58.530 261.874,58.800 262.507,58.800 263.006 C 58.800 263.506,59.070 264.018,59.400 264.145 C 59.730 264.271,60.000 264.745,60.000 265.196 C 60.000 266.308,68.492 274.800,69.604 274.800 C 70.055 274.800,70.529 275.070,70.655 275.400 C 70.782 275.730,71.257 276.000,71.711 276.000 C 72.165 276.000,72.866 276.298,73.268 276.662 C 73.670 277.025,74.634 277.362,75.410 277.409 C 76.186 277.456,77.145 277.788,77.542 278.147 C 78.065 278.621,79.037 278.800,81.089 278.800 C 83.231 278.800,83.970 278.945,84.145 279.400 C 84.321 279.860,85.080 280.000,87.400 280.000 C 89.720 280.000,90.479 279.860,90.655 279.400 C 90.840 278.919,91.729 278.800,95.154 278.800 C 98.915 278.800,99.503 278.706,100.101 278.007 C 100.629 277.391,101.243 277.224,102.856 277.261 C 104.356 277.295,105.065 277.126,105.410 276.654 C 105.716 276.236,106.470 276.000,107.501 276.000 C 108.566 276.000,109.193 275.796,109.345 275.400 C 109.495 275.009,110.116 274.800,111.125 274.800 C 112.168 274.800,112.913 274.538,113.400 274.000 C 113.798 273.560,114.527 273.200,115.019 273.200 C 115.512 273.200,116.018 272.930,116.145 272.600 C 116.271 272.270,116.836 272.000,117.400 272.000 C 117.964 272.000,118.529 271.730,118.655 271.400 C 118.782 271.070,119.288 270.800,119.781 270.800 C 120.273 270.800,121.002 270.440,121.400 270.000 C 121.798 269.560,122.527 269.200,123.019 269.200 C 123.512 269.200,124.018 268.930,124.145 268.600 C 124.271 268.270,124.836 268.000,125.400 268.000 C 125.964 268.000,126.529 267.730,126.655 267.400 C 126.782 267.070,127.281 266.800,127.764 266.800 C 128.248 266.800,129.254 266.170,130.000 265.400 C 130.746 264.630,131.738 264.000,132.203 264.000 C 132.672 264.000,133.429 263.486,133.900 262.850 C 134.368 262.217,135.257 261.574,135.875 261.421 C 136.494 261.268,137.485 260.616,138.077 259.971 C 138.670 259.327,139.487 258.800,139.892 258.800 C 140.298 258.800,141.517 257.900,142.600 256.800 C 143.683 255.700,144.863 254.800,145.222 254.800 C 145.580 254.800,147.424 253.270,149.319 251.400 C 151.215 249.530,153.067 248.000,153.436 248.000 C 153.804 248.000,155.895 246.198,158.083 243.995 C 160.270 241.792,162.226 240.093,162.430 240.219 C 163.014 240.580,162.863 241.668,162.112 242.497 C 161.692 242.962,161.468 243.756,161.536 244.545 C 161.613 245.438,161.394 246.062,160.823 246.579 C 160.192 247.150,160.000 247.812,160.000 249.413 C 160.000 250.782,159.793 251.674,159.400 252.000 C 158.929 252.391,158.800 253.508,158.800 257.200 C 158.800 260.892,158.671 262.009,158.200 262.400 C 157.870 262.674,157.600 263.127,157.600 263.406 C 157.600 263.686,157.870 264.018,158.200 264.145 C 158.675 264.327,158.800 265.163,158.800 268.145 C 158.800 271.127,158.925 271.963,159.400 272.145 C 159.730 272.271,160.000 272.799,160.000 273.318 C 160.000 273.907,160.526 274.699,161.400 275.428 C 162.170 276.070,162.800 276.931,162.800 277.341 C 162.800 278.394,164.427 279.985,165.513 279.993 C 166.014 279.997,166.529 280.270,166.655 280.600 C 166.782 280.930,167.202 281.200,167.589 281.200 C 167.976 281.200,168.750 281.560,169.309 282.000 C 170.863 283.222,185.137 283.222,186.691 282.000 C 187.250 281.560,188.292 281.200,189.005 281.200 C 189.718 281.200,190.526 280.930,190.800 280.600 C 191.087 280.254,191.960 280.000,192.862 280.000 C 193.882 280.000,194.505 279.792,194.655 279.400 C 194.782 279.070,195.288 278.800,195.781 278.800 C 196.273 278.800,197.002 278.440,197.400 278.000 C 197.798 277.560,198.527 277.200,199.019 277.200 C 199.512 277.200,200.018 276.930,200.145 276.600 C 200.271 276.270,200.836 276.000,201.400 276.000 C 201.964 276.000,202.529 275.730,202.655 275.400 C 202.782 275.070,203.281 274.800,203.764 274.800 C 204.248 274.800,205.254 274.170,206.000 273.400 C 206.746 272.630,207.687 272.000,208.091 272.000 C 208.494 272.000,209.378 271.370,210.054 270.600 C 210.757 269.799,211.658 269.200,212.160 269.200 C 212.644 269.200,213.477 268.670,214.019 268.017 C 214.558 267.366,215.367 266.826,215.815 266.817 C 216.263 266.808,217.517 265.900,218.600 264.800 C 219.683 263.700,220.868 262.800,221.233 262.800 C 221.598 262.800,223.135 261.541,224.648 260.003 C 226.162 258.464,227.736 257.204,228.147 257.203 C 228.559 257.201,230.682 255.405,232.878 253.200 C 235.069 251.000,237.185 249.200,237.582 249.200 C 237.978 249.200,238.526 248.930,238.800 248.600 C 240.225 246.882,241.240 247.997,241.448 251.507 C 241.541 253.088,241.843 254.405,242.202 254.802 C 242.531 255.166,242.800 256.129,242.800 256.944 C 242.800 257.892,243.016 258.508,243.400 258.655 C 243.800 258.809,244.000 259.439,244.000 260.545 C 244.000 261.953,244.213 262.382,245.400 263.372 C 246.274 264.101,246.800 264.893,246.800 265.482 C 246.800 266.001,247.070 266.529,247.400 266.655 C 247.730 266.782,248.000 267.271,248.000 267.743 C 248.000 268.797,254.981 276.000,256.002 276.000 C 256.387 276.000,256.926 276.270,257.200 276.600 C 257.474 276.930,258.038 277.200,258.453 277.200 C 258.868 277.200,259.516 277.560,259.893 278.000 C 260.536 278.751,261.073 278.800,268.627 278.800 C 276.168 278.800,276.722 278.750,277.400 278.000 C 277.887 277.462,278.632 277.200,279.675 277.200 C 280.684 277.200,281.305 276.991,281.455 276.600 C 281.612 276.192,282.251 276.000,283.455 276.000 C 284.659 276.000,285.299 275.808,285.455 275.400 C 285.582 275.070,286.122 274.800,286.655 274.800 C 287.189 274.800,287.729 274.530,287.855 274.200 C 287.982 273.870,288.402 273.600,288.789 273.600 C 289.176 273.600,289.950 273.240,290.509 272.800 C 291.069 272.360,291.818 272.000,292.175 272.000 C 292.532 272.000,293.382 271.365,294.063 270.589 C 294.869 269.672,295.537 269.253,295.975 269.392 C 296.412 269.531,297.084 269.113,297.890 268.203 C 298.573 267.431,299.472 266.800,299.887 266.800 C 300.303 266.800,301.254 266.170,302.000 265.400 C 302.746 264.630,303.664 264.000,304.039 264.000 C 304.414 264.000,306.199 262.515,308.007 260.700 C 309.814 258.885,311.552 257.455,311.868 257.522 C 312.634 257.686,329.600 240.696,329.600 239.766 C 329.600 239.369,331.040 237.631,332.800 235.904 C 336.141 232.625,337.172 230.025,335.400 229.345 C 334.960 229.176,334.800 228.482,334.800 226.745 C 334.800 225.052,334.636 224.312,334.224 224.154 C 333.908 224.033,333.534 223.408,333.393 222.767 C 333.031 221.122,331.260 221.138,329.861 222.800 C 329.306 223.460,328.518 224.000,328.111 224.000 C 327.703 224.000,326.483 224.900,325.400 226.000 C 324.317 227.100,323.114 228.000,322.727 228.000 C 322.340 228.000,321.147 228.900,320.075 230.000 C 319.004 231.100,317.783 232.006,317.364 232.013 C 316.944 232.020,315.979 232.650,315.219 233.413 C 314.460 234.176,313.553 234.800,313.204 234.800 C 312.855 234.800,311.683 235.700,310.600 236.800 C 309.517 237.900,308.297 238.800,307.889 238.800 C 307.482 238.800,306.705 239.327,306.163 239.971 C 305.622 240.614,304.658 241.255,304.023 241.395 C 303.387 241.535,302.767 241.908,302.646 242.224 C 302.524 242.541,301.991 242.800,301.462 242.800 C 300.932 242.800,300.274 243.070,300.000 243.400 C 299.726 243.730,299.139 244.000,298.695 244.000 C 298.251 244.000,297.669 244.300,297.401 244.666 C 297.059 245.134,296.228 245.356,294.603 245.413 C 292.941 245.471,292.189 245.677,291.926 246.147 C 291.423 247.045,279.574 247.132,278.836 246.243 C 278.582 245.937,277.586 245.569,276.623 245.424 C 275.659 245.280,274.771 244.900,274.648 244.581 C 274.525 244.261,274.014 243.997,273.513 243.993 C 272.390 243.985,270.800 242.381,270.800 241.258 C 270.800 240.801,270.419 240.224,269.954 239.975 C 269.272 239.610,269.150 239.266,269.323 238.195 C 269.484 237.205,269.343 236.692,268.769 236.172 C 268.107 235.573,268.000 234.914,268.000 231.425 L 268.000 227.375 270.312 225.087 C 271.583 223.829,272.910 222.800,273.260 222.800 C 273.610 222.800,275.135 221.541,276.648 220.003 C 278.162 218.464,279.733 217.204,280.140 217.203 C 281.142 217.199,304.000 194.328,304.000 193.329 C 304.000 192.914,304.900 191.738,306.000 190.716 C 307.100 189.693,308.000 188.519,308.000 188.107 C 308.000 187.694,308.630 186.746,309.400 186.000 C 310.170 185.254,310.800 184.248,310.800 183.764 C 310.800 183.281,311.070 182.782,311.400 182.655 C 311.730 182.529,312.000 181.976,312.000 181.427 C 312.000 180.848,312.326 180.254,312.775 180.014 C 313.388 179.685,313.503 179.315,313.328 178.235 C 313.155 177.168,313.291 176.714,313.953 176.147 C 315.025 175.229,315.206 170.435,314.200 169.600 C 313.870 169.326,313.600 168.750,313.600 168.320 C 313.600 167.312,311.433 165.136,310.706 165.415 C 310.400 165.532,309.818 165.262,309.413 164.814 C 308.913 164.262,308.177 164.000,307.125 164.000 C 306.116 164.000,305.495 163.791,305.345 163.400 C 305.163 162.925,304.327 162.800,301.345 162.800 C 298.363 162.800,297.527 162.925,297.345 163.400 C 297.176 163.839,296.485 164.000,294.771 164.000 C 292.838 164.000,292.353 164.140,292.000 164.800 C 291.759 165.250,291.162 165.600,290.635 165.600 C 290.120 165.600,289.474 165.870,289.200 166.200 C 288.926 166.530,288.293 166.800,287.794 166.800 C 287.294 166.800,286.782 167.070,286.655 167.400 C 286.529 167.730,286.009 168.000,285.501 168.000 C 284.993 168.000,284.270 168.360,283.893 168.800 C 283.516 169.240,282.884 169.600,282.489 169.600 C 282.093 169.600,280.898 170.485,279.832 171.567 C 278.767 172.649,277.675 173.450,277.407 173.347 C 276.767 173.102,260.000 189.866,260.000 190.751 C 260.000 191.125,259.100 192.317,258.000 193.400 C 256.861 194.522,256.000 195.731,256.000 196.210 C 256.000 196.672,255.482 197.432,254.850 197.900 C 254.217 198.368,253.574 199.257,253.421 199.875 C 253.268 200.494,252.616 201.485,251.971 202.077 C 251.327 202.670,250.800 203.503,250.800 203.928 C 250.800 204.354,250.530 204.926,250.200 205.200 C 249.870 205.474,249.600 206.120,249.600 206.635 C 249.600 207.162,249.250 207.759,248.800 208.000 C 248.328 208.253,248.000 208.838,248.000 209.427 C 248.000 209.976,247.730 210.529,247.400 210.655 C 247.070 210.782,246.800 211.234,246.800 211.659 C 246.800 212.084,246.416 212.951,245.947 213.585 C 245.384 214.348,245.164 215.097,245.297 215.797 C 245.441 216.550,245.283 216.991,244.750 217.324 C 244.206 217.664,244.000 218.264,244.000 219.509 C 244.000 220.665,243.804 221.300,243.400 221.455 C 243.022 221.600,242.800 222.213,242.800 223.111 C 242.800 223.895,242.501 224.867,242.136 225.271 C 241.770 225.675,241.450 226.616,241.424 227.361 C 241.370 228.914,238.650 232.000,237.334 232.000 C 236.917 232.000,235.738 232.900,234.716 234.000 C 233.693 235.100,232.519 236.000,232.107 236.000 C 231.694 236.000,230.746 236.630,230.000 237.400 C 229.254 238.170,228.303 238.800,227.887 238.800 C 227.472 238.800,226.574 239.430,225.892 240.200 C 225.157 241.030,224.281 241.600,223.738 241.600 C 223.186 241.600,222.473 242.075,221.937 242.800 C 221.437 243.476,220.680 244.000,220.203 244.000 C 219.738 244.000,218.746 244.630,218.000 245.400 C 217.254 246.170,216.248 246.800,215.764 246.800 C 215.281 246.800,214.782 247.070,214.655 247.400 C 214.529 247.730,213.964 248.000,213.400 248.000 C 212.836 248.000,212.276 248.259,212.154 248.576 C 212.033 248.892,211.421 249.264,210.794 249.401 C 210.168 249.539,209.441 249.910,209.179 250.226 C 208.917 250.542,208.293 250.800,207.794 250.800 C 207.294 250.800,206.782 251.070,206.655 251.400 C 206.505 251.791,205.884 252.000,204.875 252.000 C 203.815 252.000,203.087 252.262,202.575 252.828 C 201.628 253.874,197.293 253.770,196.079 252.671 C 195.671 252.302,194.991 251.997,194.569 251.993 C 193.555 251.984,192.000 250.312,192.000 249.231 C 192.000 248.760,191.730 248.271,191.400 248.145 C 190.901 247.953,190.800 246.822,190.800 241.400 C 190.800 235.978,190.901 234.847,191.400 234.655 C 191.792 234.505,192.000 233.882,192.000 232.862 C 192.000 231.960,192.254 231.087,192.600 230.800 C 192.937 230.521,193.200 229.649,193.200 228.813 C 193.200 227.832,193.473 227.077,194.000 226.600 C 194.528 226.122,194.800 225.368,194.800 224.381 C 194.800 223.421,195.015 222.803,195.400 222.655 C 195.730 222.529,196.000 221.964,196.000 221.400 C 196.000 220.836,196.270 220.271,196.600 220.145 C 196.930 220.018,197.200 219.512,197.200 219.019 C 197.200 218.527,197.560 217.798,198.000 217.400 C 198.440 217.002,198.800 216.273,198.800 215.781 C 198.800 215.288,199.070 214.782,199.400 214.655 C 199.730 214.529,200.000 214.051,200.000 213.593 C 200.000 213.135,200.630 212.112,201.400 211.319 C 202.170 210.526,202.800 209.567,202.800 209.188 C 202.800 208.808,203.070 208.274,203.400 208.000 C 203.730 207.726,204.000 207.159,204.000 206.739 C 204.000 206.319,204.630 205.397,205.400 204.690 C 206.170 203.984,206.800 203.083,206.800 202.689 C 206.800 202.295,207.383 201.403,208.097 200.706 C 208.810 200.008,209.345 199.154,209.286 198.807 C 209.228 198.460,209.814 197.562,210.590 196.810 C 211.365 196.058,212.000 195.124,212.000 194.733 C 212.000 194.343,212.900 193.147,214.000 192.075 C 215.100 191.004,216.003 189.783,216.007 189.364 C 216.028 187.049,217.124 186.800,227.294 186.800 C 236.168 186.800,236.715 186.757,237.400 186.000 C 237.887 185.462,238.632 185.200,239.675 185.200 C 240.684 185.200,241.305 184.991,241.455 184.600 C 241.582 184.270,242.094 184.000,242.594 184.000 C 243.093 184.000,243.726 183.730,244.000 183.400 C 244.274 183.070,244.814 182.800,245.200 182.800 C 245.586 182.800,246.111 182.548,246.367 182.239 C 246.623 181.931,247.306 181.560,247.885 181.415 C 249.259 181.070,253.200 177.118,253.200 176.085 C 253.200 175.644,253.830 174.730,254.600 174.054 C 255.370 173.378,256.000 172.532,256.000 172.175 C 256.000 171.818,256.360 171.069,256.800 170.509 C 257.240 169.950,257.600 169.268,257.600 168.995 C 257.600 168.722,257.870 168.274,258.200 168.000 C 258.530 167.726,258.800 167.111,258.800 166.632 C 258.800 166.154,259.332 165.321,259.983 164.781 C 260.634 164.242,261.174 163.423,261.183 162.962 C 261.192 162.501,261.560 161.798,262.000 161.400 C 262.440 161.002,262.800 160.273,262.800 159.781 C 262.800 159.288,263.070 158.782,263.400 158.655 C 263.730 158.529,264.000 158.009,264.000 157.501 C 264.000 156.993,264.360 156.270,264.800 155.893 C 265.240 155.516,265.600 154.868,265.600 154.453 C 265.600 154.038,265.870 153.474,266.200 153.200 C 266.894 152.624,267.010 150.177,266.362 149.777 C 266.121 149.628,264.397 149.479,262.531 149.447 C 259.766 149.399,259.065 149.259,258.749 148.694 C 258.417 148.101,257.721 148.000,253.980 148.000 C 249.122 148.000,248.529 147.616,250.800 145.937 C 251.471 145.441,252.000 144.679,252.000 144.210 C 252.000 143.731,252.861 142.522,254.000 141.400 C 255.100 140.317,256.000 139.103,256.000 138.703 C 256.000 138.303,256.630 137.422,257.400 136.746 C 258.278 135.975,258.800 135.155,258.800 134.546 C 258.800 134.012,259.070 133.471,259.400 133.345 C 259.804 133.190,260.000 132.555,260.000 131.400 C 260.000 130.245,260.196 129.610,260.600 129.455 C 262.276 128.812,259.293 124.000,257.219 124.000 C 256.755 124.000,256.271 123.730,256.145 123.400 C 255.957 122.910,254.977 122.800,250.800 122.800 C 246.623 122.800,245.643 122.910,245.455 123.400 M133.837 171.700 C 135.740 173.504,135.250 177.406,132.800 179.961 C 131.700 181.108,130.800 182.326,130.800 182.666 C 130.800 183.527,120.658 193.600,119.792 193.600 C 119.404 193.600,118.238 194.500,117.200 195.600 C 116.147 196.716,114.956 197.600,114.505 197.600 C 114.061 197.600,113.474 197.870,113.200 198.200 C 112.926 198.530,112.349 198.800,111.917 198.800 C 111.485 198.800,110.574 199.430,109.892 200.200 C 109.186 200.998,108.275 201.600,107.775 201.600 C 107.293 201.600,106.674 201.870,106.400 202.200 C 106.126 202.530,105.586 202.800,105.200 202.800 C 104.814 202.800,104.274 203.070,104.000 203.400 C 103.726 203.730,103.093 204.000,102.594 204.000 C 102.094 204.000,101.588 204.253,101.470 204.562 C 101.351 204.872,100.714 205.243,100.055 205.388 C 99.395 205.533,98.641 205.910,98.379 206.226 C 98.117 206.542,97.586 206.800,97.200 206.800 C 96.814 206.800,96.274 207.070,96.000 207.400 C 95.715 207.743,94.843 208.000,93.965 208.000 C 92.838 208.000,92.314 208.213,92.000 208.800 C 91.759 209.250,91.162 209.600,90.635 209.600 C 90.120 209.600,89.474 209.870,89.200 210.200 C 88.613 210.908,87.365 210.990,86.967 210.347 C 86.814 210.098,86.983 209.729,87.344 209.527 C 87.705 209.325,88.000 208.741,88.000 208.229 C 88.000 207.717,88.270 207.074,88.600 206.800 C 88.930 206.526,89.200 205.962,89.200 205.547 C 89.200 205.132,89.560 204.484,90.000 204.107 C 90.440 203.730,90.800 203.044,90.800 202.581 C 90.800 202.108,91.413 201.228,92.197 200.574 C 93.039 199.872,93.516 199.165,93.398 198.793 C 93.275 198.405,94.241 197.145,96.001 195.399 C 97.540 193.871,98.800 192.312,98.800 191.933 C 98.800 191.050,104.668 185.200,105.554 185.200 C 105.922 185.200,107.383 184.030,108.800 182.600 C 110.397 180.989,111.707 180.000,112.246 180.000 C 112.723 180.000,113.218 179.730,113.345 179.400 C 113.471 179.070,113.987 178.800,114.490 178.800 C 115.025 178.800,115.940 178.218,116.690 177.400 C 117.397 176.630,118.319 176.000,118.739 176.000 C 119.159 176.000,119.726 175.730,120.000 175.400 C 120.274 175.070,120.808 174.800,121.187 174.800 C 121.566 174.800,122.202 174.440,122.600 174.000 C 123.077 173.473,123.832 173.200,124.813 173.200 C 125.649 173.200,126.521 172.937,126.800 172.600 C 127.087 172.254,127.960 172.000,128.862 172.000 C 129.882 172.000,130.505 171.792,130.655 171.400 C 130.998 170.508,132.754 170.674,133.837 171.700 " stroke="none" fill="#F5F5F5" fill-rule="evenodd"></path>
    <path id="path1" d="M181.400 22.000 C 180.743 22.726,180.168 22.800,175.181 22.800 C 170.665 22.800,169.645 22.907,169.455 23.400 C 169.273 23.875,168.437 24.000,165.455 24.000 C 162.473 24.000,161.637 24.125,161.455 24.600 C 161.289 25.033,160.610 25.200,159.009 25.200 C 157.287 25.200,156.639 25.379,156.107 26.000 C 155.572 26.625,154.927 26.800,153.154 26.800 C 151.507 26.800,150.823 26.964,150.655 27.400 C 150.488 27.836,149.804 28.000,148.157 28.000 C 146.507 28.000,145.756 28.181,145.404 28.662 C 145.125 29.043,144.311 29.346,143.489 29.374 C 142.701 29.402,141.715 29.734,141.297 30.112 C 140.866 30.502,139.895 30.800,139.056 30.800 C 138.108 30.800,137.492 31.016,137.345 31.400 C 137.218 31.730,136.757 32.000,136.320 32.000 C 135.884 32.000,135.060 32.367,134.489 32.816 C 133.781 33.373,133.120 33.558,132.402 33.400 C 131.649 33.235,131.143 33.400,130.614 33.985 C 130.208 34.433,129.566 34.800,129.187 34.800 C 128.808 34.800,128.274 35.070,128.000 35.400 C 127.713 35.746,126.840 36.000,125.938 36.000 C 124.918 36.000,124.295 36.208,124.145 36.600 C 124.018 36.930,123.512 37.200,123.019 37.200 C 122.527 37.200,121.798 37.560,121.400 38.000 C 121.002 38.440,120.273 38.800,119.781 38.800 C 119.288 38.800,118.782 39.070,118.655 39.400 C 118.529 39.730,117.964 40.000,117.400 40.000 C 116.836 40.000,116.271 40.270,116.145 40.600 C 116.018 40.930,115.519 41.200,115.036 41.200 C 114.552 41.200,113.546 41.830,112.800 42.600 C 112.054 43.370,111.048 44.000,110.564 44.000 C 110.081 44.000,109.582 44.270,109.455 44.600 C 109.329 44.930,108.805 45.200,108.291 45.200 C 107.749 45.200,106.788 45.787,106.000 46.600 C 105.254 47.370,104.354 48.000,104.000 48.000 C 103.646 48.000,102.746 48.630,102.000 49.400 C 101.254 50.170,100.273 50.808,99.822 50.817 C 99.370 50.826,98.558 51.366,98.019 52.017 C 97.479 52.668,96.696 53.200,96.279 53.200 C 95.861 53.200,94.890 53.830,94.120 54.600 C 93.350 55.370,92.418 56.000,92.049 56.000 C 91.680 56.000,90.125 57.263,88.594 58.806 C 87.062 60.350,85.591 61.529,85.325 61.426 C 84.689 61.183,58.800 87.068,58.800 87.947 C 58.800 88.318,57.540 89.872,56.000 91.400 C 54.460 92.928,53.200 94.516,53.200 94.929 C 53.200 95.341,52.300 96.505,51.200 97.515 C 50.014 98.604,49.200 99.695,49.200 100.195 C 49.200 100.658,48.668 101.479,48.017 102.019 C 47.366 102.558,46.826 103.383,46.817 103.851 C 46.808 104.319,46.530 104.926,46.200 105.200 C 45.870 105.474,45.600 106.082,45.600 106.551 C 45.600 107.037,44.998 107.907,44.200 108.572 C 43.414 109.228,42.800 110.108,42.800 110.581 C 42.800 111.044,42.440 111.730,42.000 112.107 C 41.560 112.484,41.200 113.132,41.200 113.547 C 41.200 113.962,40.930 114.526,40.600 114.800 C 40.270 115.074,40.000 115.641,40.000 116.061 C 40.000 116.481,39.370 117.378,38.600 118.054 C 37.722 118.825,37.200 119.645,37.200 120.254 C 37.200 120.788,36.930 121.329,36.600 121.455 C 36.192 121.612,36.000 122.251,36.000 123.455 C 36.000 124.659,35.808 125.299,35.400 125.455 C 35.070 125.582,34.800 126.076,34.800 126.554 C 34.800 127.031,34.440 127.730,34.000 128.107 C 33.560 128.484,33.200 129.132,33.200 129.547 C 33.200 129.962,32.930 130.526,32.600 130.800 C 32.270 131.074,32.000 131.732,32.000 132.262 C 32.000 132.791,31.730 133.329,31.400 133.455 C 31.015 133.603,30.800 134.221,30.800 135.181 C 30.800 136.168,30.528 136.922,30.000 137.400 C 29.462 137.887,29.200 138.632,29.200 139.675 C 29.200 140.684,28.991 141.305,28.600 141.455 C 28.196 141.610,28.000 142.245,28.000 143.400 C 28.000 144.555,27.804 145.190,27.400 145.345 C 27.009 145.495,26.800 146.116,26.800 147.125 C 26.800 148.156,26.538 148.913,26.018 149.384 C 25.420 149.925,25.255 150.544,25.318 152.004 C 25.376 153.352,25.194 154.144,24.700 154.689 C 24.228 155.211,24.000 156.121,24.000 157.483 C 24.000 158.790,23.788 159.678,23.400 160.000 C 22.978 160.350,22.800 161.277,22.800 163.117 C 22.800 165.051,22.617 165.939,22.100 166.510 C 21.572 167.093,21.366 168.155,21.261 170.825 C 21.166 173.234,20.942 174.516,20.561 174.833 C 20.125 175.195,20.000 176.653,20.000 181.400 C 20.000 186.336,19.885 187.597,19.400 188.000 C 18.498 188.748,18.498 214.309,19.400 214.655 C 19.898 214.847,20.000 215.956,20.000 221.194 C 20.000 226.313,20.113 227.596,20.600 228.000 C 21.051 228.374,21.200 229.379,21.200 232.035 C 21.200 235.162,21.293 235.621,22.000 236.000 C 22.691 236.370,22.800 236.838,22.800 239.427 C 22.800 241.723,22.941 242.479,23.400 242.655 C 23.837 242.823,24.000 243.511,24.000 245.194 C 24.000 246.758,24.194 247.663,24.600 248.000 C 24.943 248.285,25.200 249.157,25.200 250.035 C 25.200 251.162,25.413 251.686,26.000 252.000 C 26.660 252.353,26.800 252.838,26.800 254.771 C 26.800 256.485,26.961 257.176,27.400 257.345 C 27.792 257.495,28.000 258.118,28.000 259.138 C 28.000 260.040,28.254 260.913,28.600 261.200 C 28.930 261.474,29.200 262.120,29.200 262.635 C 29.200 263.162,29.550 263.759,30.000 264.000 C 30.612 264.328,30.800 264.838,30.800 266.171 C 30.800 267.352,30.994 267.989,31.400 268.145 C 31.730 268.271,32.000 268.836,32.000 269.400 C 32.000 269.964,32.270 270.529,32.600 270.655 C 32.930 270.782,33.200 271.288,33.200 271.781 C 33.200 272.273,33.560 273.002,34.000 273.400 C 34.538 273.887,34.800 274.632,34.800 275.675 C 34.800 276.684,35.009 277.305,35.400 277.455 C 35.730 277.582,36.000 278.094,36.000 278.594 C 36.000 279.093,36.270 279.726,36.600 280.000 C 36.930 280.274,37.200 280.808,37.200 281.187 C 37.200 281.566,37.560 282.202,38.000 282.600 C 38.440 282.998,38.800 283.662,38.800 284.075 C 38.800 284.489,39.383 285.397,40.097 286.094 C 40.810 286.792,41.344 287.652,41.284 288.008 C 41.224 288.363,41.540 288.984,41.987 289.389 C 42.434 289.793,42.800 290.462,42.800 290.874 C 42.800 291.287,43.443 292.189,44.229 292.879 C 45.186 293.719,45.594 294.378,45.465 294.872 C 45.345 295.330,45.562 295.766,46.036 296.019 C 46.456 296.244,46.803 296.827,46.807 297.314 C 46.811 297.801,47.288 298.650,47.868 299.200 C 48.448 299.750,49.159 300.764,49.447 301.453 C 49.735 302.141,50.684 303.381,51.556 304.207 C 52.427 305.033,53.248 306.138,53.380 306.663 C 53.512 307.188,54.785 308.777,56.210 310.195 C 57.634 311.613,58.802 313.094,58.805 313.486 C 58.807 313.879,60.877 316.253,63.405 318.762 C 65.932 321.272,68.000 323.612,68.000 323.962 C 68.000 324.817,75.123 332.000,75.971 332.000 C 76.339 332.000,78.791 334.158,81.420 336.795 C 84.049 339.433,86.516 341.593,86.902 341.595 C 87.288 341.598,88.504 342.519,89.604 343.642 C 90.724 344.786,91.839 345.594,92.140 345.478 C 92.442 345.362,93.594 346.207,94.774 347.410 C 95.927 348.586,97.085 349.466,97.346 349.365 C 97.607 349.265,98.446 349.811,99.211 350.579 C 99.975 351.346,100.974 351.980,101.430 351.987 C 101.887 351.994,102.786 352.630,103.428 353.400 C 104.138 354.252,104.954 354.800,105.510 354.800 C 106.013 354.800,106.529 355.070,106.655 355.400 C 106.782 355.730,107.281 356.000,107.764 356.000 C 108.248 356.000,109.254 356.630,110.000 357.400 C 110.746 358.170,111.752 358.800,112.236 358.800 C 112.719 358.800,113.218 359.070,113.345 359.400 C 113.471 359.730,114.003 360.000,114.525 360.000 C 115.048 360.000,115.802 360.360,116.200 360.800 C 116.598 361.240,117.234 361.600,117.613 361.600 C 117.992 361.600,118.526 361.870,118.800 362.200 C 119.074 362.530,119.707 362.800,120.206 362.800 C 120.706 362.800,121.218 363.070,121.345 363.400 C 121.471 363.730,121.971 364.000,122.456 364.000 C 122.941 364.000,123.644 364.278,124.019 364.617 C 124.394 364.957,125.398 365.344,126.250 365.478 C 127.103 365.612,127.944 365.964,128.120 366.261 C 128.296 366.557,128.886 366.800,129.432 366.800 C 129.978 366.800,130.529 367.070,130.655 367.400 C 130.811 367.806,131.448 368.000,132.629 368.000 C 133.935 368.000,134.474 368.191,134.781 368.764 C 135.030 369.229,135.471 369.454,135.910 369.339 C 136.322 369.232,136.952 369.505,137.378 369.975 C 137.887 370.538,138.617 370.800,139.675 370.800 C 140.684 370.800,141.305 371.009,141.455 371.400 C 141.603 371.785,142.221 372.000,143.181 372.000 C 144.187 372.000,144.922 372.272,145.429 372.832 C 146.046 373.514,146.476 373.619,147.819 373.418 C 149.111 373.224,149.676 373.344,150.492 373.986 C 151.246 374.580,152.119 374.800,153.720 374.800 C 155.302 374.800,155.979 374.968,156.145 375.400 C 156.310 375.831,156.984 376.000,158.538 376.000 C 159.892 376.000,160.874 376.207,161.161 376.553 C 161.456 376.909,162.967 377.207,165.391 377.389 C 167.855 377.574,169.324 377.867,169.630 378.236 C 169.978 378.655,171.166 378.800,174.262 378.800 C 177.593 378.800,178.471 378.920,178.655 379.400 C 179.004 380.308,217.107 380.308,217.455 379.400 C 217.639 378.922,218.502 378.800,221.711 378.800 C 224.816 378.800,225.897 378.656,226.434 378.169 C 226.938 377.713,228.072 377.519,230.524 377.469 C 233.124 377.416,234.097 377.236,234.690 376.700 C 235.275 376.170,236.161 376.000,238.344 376.000 C 240.536 376.000,241.280 375.856,241.455 375.400 C 241.620 374.972,242.289 374.800,243.794 374.800 C 245.180 374.800,246.073 374.594,246.400 374.200 C 246.679 373.863,247.551 373.600,248.387 373.600 C 249.368 373.600,250.123 373.327,250.600 372.800 C 251.087 372.262,251.832 372.000,252.875 372.000 C 253.884 372.000,254.505 371.791,254.655 371.400 C 254.804 371.013,255.422 370.800,256.394 370.800 C 257.224 370.800,258.119 370.539,258.384 370.220 C 258.649 369.900,259.655 369.521,260.620 369.376 C 261.585 369.231,262.582 368.863,262.836 368.557 C 263.090 368.250,264.002 368.000,264.862 368.000 C 265.882 368.000,266.505 367.792,266.655 367.400 C 266.782 367.070,267.294 366.800,267.794 366.800 C 268.293 366.800,268.917 366.542,269.179 366.226 C 269.441 365.910,270.168 365.539,270.794 365.401 C 271.421 365.264,272.033 364.892,272.154 364.576 C 272.276 364.259,272.836 364.000,273.400 364.000 C 273.964 364.000,274.529 363.730,274.655 363.400 C 274.782 363.070,275.294 362.800,275.794 362.800 C 276.293 362.800,276.926 362.530,277.200 362.200 C 277.474 361.870,278.120 361.600,278.635 361.600 C 279.162 361.600,279.759 361.250,280.000 360.800 C 280.253 360.328,280.838 360.000,281.427 360.000 C 281.976 360.000,282.529 359.730,282.655 359.400 C 282.782 359.070,283.294 358.800,283.794 358.800 C 284.293 358.800,284.926 358.530,285.200 358.200 C 285.474 357.870,286.038 357.600,286.453 357.600 C 286.868 357.600,287.516 357.240,287.893 356.800 C 288.270 356.360,288.951 356.000,289.408 356.000 C 289.864 356.000,290.679 355.468,291.219 354.817 C 291.758 354.166,292.570 353.626,293.022 353.617 C 293.473 353.608,294.454 352.970,295.200 352.200 C 295.946 351.430,296.854 350.800,297.217 350.800 C 297.580 350.800,298.526 350.170,299.319 349.400 C 300.112 348.630,301.068 348.000,301.444 348.000 C 301.820 348.000,303.004 347.100,304.075 346.000 C 305.147 344.900,306.338 344.000,306.723 344.000 C 307.108 344.000,308.583 342.830,310.000 341.400 C 311.417 339.970,312.871 338.800,313.231 338.800 C 314.136 338.800,337.637 315.362,337.387 314.710 C 337.277 314.424,338.450 312.938,339.994 311.406 C 341.537 309.875,342.800 308.294,342.800 307.893 C 342.800 307.493,343.700 306.336,344.800 305.323 C 346.023 304.196,346.800 303.143,346.800 302.610 C 346.800 302.104,347.386 301.250,348.200 300.572 C 348.973 299.928,349.600 299.034,349.600 298.577 C 349.600 298.122,350.140 297.232,350.800 296.600 C 351.460 295.968,352.000 295.053,352.000 294.568 C 352.000 294.083,352.253 293.588,352.562 293.470 C 352.872 293.351,353.247 292.696,353.397 292.013 C 353.548 291.326,354.190 290.388,354.835 289.911 C 355.495 289.423,356.000 288.676,356.000 288.187 C 356.000 287.712,356.366 286.992,356.814 286.587 C 357.262 286.182,357.536 285.609,357.422 285.314 C 357.309 285.019,357.573 284.473,358.008 284.100 C 358.444 283.727,358.800 283.007,358.800 282.499 C 358.800 281.991,359.070 281.471,359.400 281.345 C 359.730 281.218,360.000 280.706,360.000 280.206 C 360.000 279.707,360.270 279.074,360.600 278.800 C 360.930 278.526,361.200 277.962,361.200 277.547 C 361.200 277.132,361.560 276.484,362.000 276.107 C 362.440 275.730,362.800 275.031,362.800 274.554 C 362.800 274.076,363.070 273.582,363.400 273.455 C 363.804 273.300,364.000 272.665,364.000 271.509 C 364.000 270.226,364.202 269.666,364.800 269.293 C 365.240 269.018,365.600 268.367,365.600 267.846 C 365.600 267.324,365.870 266.674,366.200 266.400 C 366.539 266.118,366.800 265.246,366.800 264.394 C 366.800 263.422,367.013 262.804,367.400 262.655 C 367.784 262.508,368.000 261.892,368.000 260.944 C 368.000 260.128,368.297 259.135,368.662 258.732 C 369.025 258.330,369.362 257.366,369.409 256.590 C 369.456 255.814,369.788 254.855,370.147 254.458 C 370.506 254.062,370.800 253.095,370.800 252.311 C 370.800 251.413,371.022 250.800,371.400 250.655 C 371.830 250.490,372.000 249.817,372.000 248.275 C 372.000 246.632,372.189 245.953,372.800 245.400 C 373.423 244.836,373.600 244.168,373.600 242.381 C 373.600 240.710,373.763 240.023,374.200 239.855 C 374.659 239.679,374.800 238.926,374.800 236.655 C 374.800 234.385,374.941 233.631,375.400 233.455 C 375.883 233.270,376.000 232.368,376.000 228.832 C 376.000 225.484,376.133 224.364,376.561 224.120 C 377.005 223.866,377.164 221.949,377.326 214.870 C 377.496 207.478,377.640 205.818,378.166 205.238 C 379.135 204.166,379.083 195.776,378.100 194.689 C 377.483 194.007,377.400 192.976,377.400 185.999 C 377.400 179.022,377.317 177.992,376.700 177.311 C 376.130 176.680,376.000 175.781,376.000 172.456 C 376.000 169.197,375.879 168.328,375.400 168.145 C 374.945 167.970,374.800 167.231,374.800 165.089 C 374.800 163.039,374.621 162.065,374.149 161.543 C 373.766 161.121,373.457 159.988,373.400 158.800 C 373.343 157.612,373.034 156.479,372.651 156.057 C 372.214 155.573,372.000 154.606,372.000 153.111 C 372.000 151.502,371.834 150.822,371.400 150.655 C 371.008 150.505,370.800 149.882,370.800 148.862 C 370.800 147.960,370.546 147.087,370.200 146.800 C 369.857 146.515,369.600 145.643,369.600 144.765 C 369.600 143.638,369.387 143.114,368.800 142.800 C 368.188 142.472,368.000 141.962,368.000 140.629 C 368.000 139.448,367.806 138.811,367.400 138.655 C 367.008 138.505,366.800 137.882,366.800 136.862 C 366.800 135.960,366.546 135.087,366.200 134.800 C 365.870 134.526,365.600 133.992,365.600 133.613 C 365.600 133.234,365.240 132.598,364.800 132.200 C 364.262 131.713,364.000 130.968,364.000 129.925 C 364.000 128.916,363.791 128.295,363.400 128.145 C 363.070 128.018,362.800 127.506,362.800 127.006 C 362.800 126.507,362.530 125.874,362.200 125.600 C 361.870 125.326,361.600 124.680,361.600 124.165 C 361.600 123.638,361.250 123.041,360.800 122.800 C 360.328 122.547,360.000 121.962,360.000 121.373 C 360.000 120.824,359.730 120.271,359.400 120.145 C 359.070 120.018,358.800 119.506,358.800 119.006 C 358.800 118.507,358.548 117.889,358.239 117.633 C 357.931 117.377,357.564 116.712,357.425 116.156 C 357.285 115.600,356.637 114.623,355.985 113.986 C 355.333 113.348,354.800 112.489,354.800 112.075 C 354.800 111.662,354.440 110.998,354.000 110.600 C 353.560 110.202,353.200 109.574,353.200 109.205 C 353.200 108.835,352.665 108.008,352.011 107.367 C 351.357 106.725,350.817 105.826,350.811 105.370 C 350.805 104.913,350.170 104.014,349.400 103.372 C 348.630 102.730,347.994 101.843,347.987 101.402 C 347.980 100.961,347.350 99.979,346.587 99.219 C 345.824 98.460,345.200 97.538,345.200 97.170 C 345.200 96.802,344.297 95.625,343.194 94.555 C 342.043 93.438,341.277 92.376,341.398 92.062 C 341.522 91.739,340.458 90.392,338.804 88.777 C 337.262 87.271,335.997 85.715,335.993 85.319 C 335.985 84.389,314.380 62.800,313.457 62.800 C 313.074 62.800,311.531 61.540,310.027 60.000 C 308.523 58.460,306.957 57.200,306.547 57.199 C 306.136 57.199,304.917 56.299,303.838 55.199 C 302.759 54.100,301.574 53.200,301.205 53.200 C 300.835 53.200,300.008 52.665,299.367 52.011 C 298.725 51.357,297.839 50.817,297.398 50.811 C 296.957 50.805,296.070 50.170,295.428 49.400 C 294.786 48.630,293.887 47.994,293.430 47.987 C 292.974 47.980,291.979 47.350,291.219 46.587 C 290.460 45.824,289.537 45.200,289.168 45.200 C 288.800 45.200,288.274 44.930,288.000 44.600 C 287.726 44.270,287.093 44.000,286.594 44.000 C 286.094 44.000,285.582 43.730,285.455 43.400 C 285.329 43.070,284.797 42.800,284.275 42.800 C 283.752 42.800,282.998 42.440,282.600 42.000 C 282.202 41.560,281.574 41.200,281.205 41.200 C 280.835 41.200,280.008 40.665,279.367 40.011 C 278.509 39.137,277.819 38.819,276.762 38.811 C 275.843 38.804,275.063 38.511,274.600 38.000 C 274.202 37.560,273.566 37.200,273.187 37.200 C 272.808 37.200,272.274 36.930,272.000 36.600 C 271.726 36.270,271.068 36.000,270.538 36.000 C 270.009 36.000,269.471 35.730,269.345 35.400 C 269.218 35.070,268.712 34.800,268.219 34.800 C 267.727 34.800,266.998 34.440,266.600 34.000 C 266.122 33.472,265.368 33.200,264.381 33.200 C 263.421 33.200,262.803 32.985,262.655 32.600 C 262.499 32.192,261.859 32.000,260.655 32.000 C 259.451 32.000,258.812 31.808,258.655 31.400 C 258.505 31.009,257.884 30.800,256.875 30.800 C 255.809 30.800,255.087 30.538,254.567 29.963 C 253.990 29.326,253.498 29.177,252.505 29.338 C 251.489 29.503,251.110 29.378,250.786 28.775 C 250.474 28.190,249.944 28.000,248.629 28.000 C 247.448 28.000,246.811 27.806,246.655 27.400 C 246.480 26.942,245.731 26.800,243.501 26.800 C 241.073 26.800,240.462 26.665,239.893 26.000 C 239.365 25.383,238.713 25.200,237.047 25.200 C 235.495 25.200,234.821 25.031,234.655 24.600 C 234.473 24.125,233.637 24.000,230.655 24.000 C 227.673 24.000,226.837 23.875,226.655 23.400 C 226.466 22.907,225.439 22.800,220.875 22.800 C 215.832 22.800,215.258 22.727,214.600 22.000 C 213.899 21.226,213.368 21.200,198.000 21.200 C 182.632 21.200,182.101 21.226,181.400 22.000 M334.800 118.200 C 335.087 118.546,335.960 118.800,336.862 118.800 C 337.882 118.800,338.505 119.008,338.655 119.400 C 338.782 119.730,339.283 120.000,339.768 120.000 C 341.184 120.000,342.800 121.990,342.800 123.734 C 342.800 124.690,343.015 125.308,343.400 125.455 C 343.857 125.631,344.000 126.378,344.000 128.594 C 344.000 130.691,343.833 131.641,343.400 132.000 C 343.007 132.326,342.800 133.218,342.800 134.587 C 342.800 136.168,342.605 136.852,342.000 137.400 C 341.560 137.798,341.200 138.527,341.200 139.019 C 341.200 139.512,340.930 140.018,340.600 140.145 C 340.270 140.271,340.000 140.767,340.000 141.247 C 340.000 141.727,339.370 142.731,338.600 143.479 C 337.830 144.227,337.200 145.140,337.200 145.508 C 337.200 146.420,332.805 150.800,331.890 150.800 C 331.486 150.800,330.670 151.327,330.077 151.971 C 329.485 152.616,328.512 153.263,327.916 153.411 C 327.320 153.558,326.623 153.931,326.367 154.239 C 326.111 154.548,325.586 154.800,325.200 154.800 C 324.814 154.800,324.274 155.070,324.000 155.400 C 323.606 155.874,322.463 156.000,318.538 156.000 C 314.495 156.000,313.532 155.889,313.345 155.400 C 313.218 155.070,312.718 154.800,312.234 154.800 C 311.151 154.800,306.800 150.424,306.800 149.335 C 306.800 148.918,306.475 148.300,306.079 147.960 C 305.042 147.072,305.093 136.516,306.137 135.931 C 306.501 135.727,306.800 135.138,306.800 134.623 C 306.800 134.107,307.070 133.582,307.400 133.455 C 307.730 133.329,308.000 132.818,308.000 132.320 C 308.000 131.145,315.035 124.000,316.192 124.000 C 316.636 124.000,317.503 123.370,318.117 122.600 C 318.856 121.674,319.571 121.200,320.230 121.200 C 320.777 121.200,321.329 120.930,321.455 120.600 C 321.582 120.270,322.094 120.000,322.594 120.000 C 323.093 120.000,323.726 119.730,324.000 119.400 C 324.327 119.006,325.219 118.800,326.600 118.800 C 327.981 118.800,328.873 118.594,329.200 118.200 C 329.537 117.794,330.442 117.600,332.000 117.600 C 333.558 117.600,334.463 117.794,334.800 118.200 M256.145 123.400 C 256.271 123.730,256.755 124.000,257.219 124.000 C 259.293 124.000,262.276 128.812,260.600 129.455 C 260.196 129.610,260.000 130.245,260.000 131.400 C 260.000 132.555,259.804 133.190,259.400 133.345 C 259.070 133.471,258.800 134.012,258.800 134.546 C 258.800 135.155,258.278 135.975,257.400 136.746 C 256.630 137.422,256.000 138.303,256.000 138.703 C 256.000 139.103,255.100 140.317,254.000 141.400 C 252.861 142.522,252.000 143.731,252.000 144.210 C 252.000 144.679,251.471 145.441,250.800 145.937 C 248.529 147.616,249.122 148.000,253.980 148.000 C 257.721 148.000,258.417 148.101,258.749 148.694 C 259.065 149.259,259.766 149.399,262.531 149.447 C 264.397 149.479,266.121 149.628,266.362 149.777 C 267.010 150.177,266.894 152.624,266.200 153.200 C 265.870 153.474,265.600 154.038,265.600 154.453 C 265.600 154.868,265.240 155.516,264.800 155.893 C 264.360 156.270,264.000 156.993,264.000 157.501 C 264.000 158.009,263.730 158.529,263.400 158.655 C 263.070 158.782,262.800 159.288,262.800 159.781 C 262.800 160.273,262.440 161.002,262.000 161.400 C 261.560 161.798,261.192 162.501,261.183 162.962 C 261.174 163.423,260.634 164.242,259.983 164.781 C 259.332 165.321,258.800 166.154,258.800 166.632 C 258.800 167.111,258.530 167.726,258.200 168.000 C 257.870 168.274,257.600 168.722,257.600 168.995 C 257.600 169.268,257.240 169.950,256.800 170.509 C 256.360 171.069,256.000 171.818,256.000 172.175 C 256.000 172.532,255.370 173.378,254.600 174.054 C 253.830 174.730,253.200 175.644,253.200 176.085 C 253.200 177.118,249.259 181.070,247.885 181.415 C 247.306 181.560,246.623 181.931,246.367 182.239 C 246.111 182.548,245.586 182.800,245.200 182.800 C 244.814 182.800,244.274 183.070,244.000 183.400 C 243.726 183.730,243.093 184.000,242.594 184.000 C 242.094 184.000,241.582 184.270,241.455 184.600 C 241.305 184.991,240.684 185.200,239.675 185.200 C 238.632 185.200,237.887 185.462,237.400 186.000 C 236.715 186.757,236.168 186.800,227.294 186.800 C 217.124 186.800,216.028 187.049,216.007 189.364 C 216.003 189.783,215.100 191.004,214.000 192.075 C 212.900 193.147,212.000 194.343,212.000 194.733 C 212.000 195.124,211.365 196.058,210.590 196.810 C 209.814 197.562,209.228 198.460,209.286 198.807 C 209.345 199.154,208.810 200.008,208.097 200.706 C 207.383 201.403,206.800 202.295,206.800 202.689 C 206.800 203.083,206.170 203.984,205.400 204.690 C 204.630 205.397,204.000 206.319,204.000 206.739 C 204.000 207.159,203.730 207.726,203.400 208.000 C 203.070 208.274,202.800 208.808,202.800 209.188 C 202.800 209.567,202.170 210.526,201.400 211.319 C 200.630 212.112,200.000 213.135,200.000 213.593 C 200.000 214.051,199.730 214.529,199.400 214.655 C 199.070 214.782,198.800 215.288,198.800 215.781 C 198.800 216.273,198.440 217.002,198.000 217.400 C 197.560 217.798,197.200 218.527,197.200 219.019 C 197.200 219.512,196.930 220.018,196.600 220.145 C 196.270 220.271,196.000 220.836,196.000 221.400 C 196.000 221.964,195.730 222.529,195.400 222.655 C 195.015 222.803,194.800 223.421,194.800 224.381 C 194.800 225.368,194.528 226.122,194.000 226.600 C 193.473 227.077,193.200 227.832,193.200 228.813 C 193.200 229.649,192.937 230.521,192.600 230.800 C 192.254 231.087,192.000 231.960,192.000 232.862 C 192.000 233.882,191.792 234.505,191.400 234.655 C 190.901 234.847,190.800 235.978,190.800 241.400 C 190.800 246.822,190.901 247.953,191.400 248.145 C 191.730 248.271,192.000 248.760,192.000 249.231 C 192.000 250.312,193.555 251.984,194.569 251.993 C 194.991 251.997,195.671 252.302,196.079 252.671 C 197.293 253.770,201.628 253.874,202.575 252.828 C 203.087 252.262,203.815 252.000,204.875 252.000 C 205.884 252.000,206.505 251.791,206.655 251.400 C 206.782 251.070,207.294 250.800,207.794 250.800 C 208.293 250.800,208.917 250.542,209.179 250.226 C 209.441 249.910,210.168 249.539,210.794 249.401 C 211.421 249.264,212.033 248.892,212.154 248.576 C 212.276 248.259,212.836 248.000,213.400 248.000 C 213.964 248.000,214.529 247.730,214.655 247.400 C 214.782 247.070,215.281 246.800,215.764 246.800 C 216.248 246.800,217.254 246.170,218.000 245.400 C 218.746 244.630,219.738 244.000,220.203 244.000 C 220.680 244.000,221.437 243.476,221.937 242.800 C 222.473 242.075,223.186 241.600,223.738 241.600 C 224.281 241.600,225.157 241.030,225.892 240.200 C 226.574 239.430,227.472 238.800,227.887 238.800 C 228.303 238.800,229.254 238.170,230.000 237.400 C 230.746 236.630,231.694 236.000,232.107 236.000 C 232.519 236.000,233.693 235.100,234.716 234.000 C 235.738 232.900,236.917 232.000,237.334 232.000 C 238.650 232.000,241.370 228.914,241.424 227.361 C 241.450 226.616,241.770 225.675,242.136 225.271 C 242.501 224.867,242.800 223.895,242.800 223.111 C 242.800 222.213,243.022 221.600,243.400 221.455 C 243.804 221.300,244.000 220.665,244.000 219.509 C 244.000 218.264,244.206 217.664,244.750 217.324 C 245.283 216.991,245.441 216.550,245.297 215.797 C 245.164 215.097,245.384 214.348,245.947 213.585 C 246.416 212.951,246.800 212.084,246.800 211.659 C 246.800 211.234,247.070 210.782,247.400 210.655 C 247.730 210.529,248.000 209.976,248.000 209.427 C 248.000 208.838,248.328 208.253,248.800 208.000 C 249.250 207.759,249.600 207.162,249.600 206.635 C 249.600 206.120,249.870 205.474,250.200 205.200 C 250.530 204.926,250.800 204.354,250.800 203.928 C 250.800 203.503,251.327 202.670,251.971 202.077 C 252.616 201.485,253.268 200.494,253.421 199.875 C 253.574 199.257,254.217 198.368,254.850 197.900 C 255.482 197.432,256.000 196.672,256.000 196.210 C 256.000 195.731,256.861 194.522,258.000 193.400 C 259.100 192.317,260.000 191.125,260.000 190.751 C 260.000 189.866,276.767 173.102,277.407 173.347 C 277.675 173.450,278.767 172.649,279.832 171.567 C 280.898 170.485,282.093 169.600,282.489 169.600 C 282.884 169.600,283.516 169.240,283.893 168.800 C 284.270 168.360,284.993 168.000,285.501 168.000 C 286.009 168.000,286.529 167.730,286.655 167.400 C 286.782 167.070,287.294 166.800,287.794 166.800 C 288.293 166.800,288.926 166.530,289.200 166.200 C 289.474 165.870,290.120 165.600,290.635 165.600 C 291.162 165.600,291.759 165.250,292.000 164.800 C 292.353 164.140,292.838 164.000,294.771 164.000 C 296.485 164.000,297.176 163.839,297.345 163.400 C 297.527 162.925,298.363 162.800,301.345 162.800 C 304.327 162.800,305.163 162.925,305.345 163.400 C 305.495 163.791,306.116 164.000,307.125 164.000 C 308.177 164.000,308.913 164.262,309.413 164.814 C 309.818 165.262,310.400 165.532,310.706 165.415 C 311.433 165.136,313.600 167.312,313.600 168.320 C 313.600 168.750,313.870 169.326,314.200 169.600 C 315.206 170.435,315.025 175.229,313.953 176.147 C 313.291 176.714,313.155 177.168,313.328 178.235 C 313.503 179.315,313.388 179.685,312.775 180.014 C 312.326 180.254,312.000 180.848,312.000 181.427 C 312.000 181.976,311.730 182.529,311.400 182.655 C 311.070 182.782,310.800 183.281,310.800 183.764 C 310.800 184.248,310.170 185.254,309.400 186.000 C 308.630 186.746,308.000 187.694,308.000 188.107 C 308.000 188.519,307.100 189.693,306.000 190.716 C 304.900 191.738,304.000 192.914,304.000 193.329 C 304.000 194.328,281.142 217.199,280.140 217.203 C 279.733 217.204,278.162 218.464,276.648 220.003 C 275.135 221.541,273.610 222.800,273.260 222.800 C 272.910 222.800,271.583 223.829,270.312 225.087 L 268.000 227.375 268.000 231.425 C 268.000 234.914,268.107 235.573,268.769 236.172 C 269.343 236.692,269.484 237.205,269.323 238.195 C 269.150 239.266,269.272 239.610,269.954 239.975 C 270.419 240.224,270.800 240.801,270.800 241.258 C 270.800 242.381,272.390 243.985,273.513 243.993 C 274.014 243.997,274.525 244.261,274.648 244.581 C 274.771 244.900,275.659 245.280,276.623 245.424 C 277.586 245.569,278.582 245.937,278.836 246.243 C 279.574 247.132,291.423 247.045,291.926 246.147 C 292.189 245.677,292.941 245.471,294.603 245.413 C 296.228 245.356,297.059 245.134,297.401 244.666 C 297.669 244.300,298.251 244.000,298.695 244.000 C 299.139 244.000,299.726 243.730,300.000 243.400 C 300.274 243.070,300.932 242.800,301.462 242.800 C 301.991 242.800,302.524 242.541,302.646 242.224 C 302.767 241.908,303.387 241.535,304.023 241.395 C 304.658 241.255,305.622 240.614,306.163 239.971 C 306.705 239.327,307.482 238.800,307.889 238.800 C 308.297 238.800,309.517 237.900,310.600 236.800 C 311.683 235.700,312.855 234.800,313.204 234.800 C 313.553 234.800,314.460 234.176,315.219 233.413 C 315.979 232.650,316.944 232.020,317.364 232.013 C 317.783 232.006,319.004 231.100,320.075 230.000 C 321.147 228.900,322.340 228.000,322.727 228.000 C 323.114 228.000,324.317 227.100,325.400 226.000 C 326.483 224.900,327.703 224.000,328.111 224.000 C 328.518 224.000,329.306 223.460,329.861 222.800 C 331.260 221.138,333.031 221.122,333.393 222.767 C 333.534 223.408,333.908 224.033,334.224 224.154 C 334.636 224.312,334.800 225.052,334.800 226.745 C 334.800 228.482,334.960 229.176,335.400 229.345 C 337.172 230.025,336.141 232.625,332.800 235.904 C 331.040 237.631,329.600 239.369,329.600 239.766 C 329.600 240.696,312.634 257.686,311.868 257.522 C 311.552 257.455,309.814 258.885,308.007 260.700 C 306.199 262.515,304.414 264.000,304.039 264.000 C 303.664 264.000,302.746 264.630,302.000 265.400 C 301.254 266.170,300.303 266.800,299.887 266.800 C 299.472 266.800,298.573 267.431,297.890 268.203 C 297.084 269.113,296.412 269.531,295.975 269.392 C 295.537 269.253,294.869 269.672,294.063 270.589 C 293.382 271.365,292.532 272.000,292.175 272.000 C 291.818 272.000,291.069 272.360,290.509 272.800 C 289.950 273.240,289.176 273.600,288.789 273.600 C 288.402 273.600,287.982 273.870,287.855 274.200 C 287.729 274.530,287.189 274.800,286.655 274.800 C 286.122 274.800,285.582 275.070,285.455 275.400 C 285.299 275.808,284.659 276.000,283.455 276.000 C 282.251 276.000,281.612 276.192,281.455 276.600 C 281.305 276.991,280.684 277.200,279.675 277.200 C 278.632 277.200,277.887 277.462,277.400 278.000 C 276.722 278.750,276.168 278.800,268.627 278.800 C 261.073 278.800,260.536 278.751,259.893 278.000 C 259.516 277.560,258.868 277.200,258.453 277.200 C 258.038 277.200,257.474 276.930,257.200 276.600 C 256.926 276.270,256.387 276.000,256.002 276.000 C 254.981 276.000,248.000 268.797,248.000 267.743 C 248.000 267.271,247.730 266.782,247.400 266.655 C 247.070 266.529,246.800 266.001,246.800 265.482 C 246.800 264.893,246.274 264.101,245.400 263.372 C 244.213 262.382,244.000 261.953,244.000 260.545 C 244.000 259.439,243.800 258.809,243.400 258.655 C 243.016 258.508,242.800 257.892,242.800 256.944 C 242.800 256.129,242.531 255.166,242.202 254.802 C 241.843 254.405,241.541 253.088,241.448 251.507 C 241.240 247.997,240.225 246.882,238.800 248.600 C 238.526 248.930,237.978 249.200,237.582 249.200 C 237.185 249.200,235.069 251.000,232.878 253.200 C 230.682 255.405,228.559 257.201,228.147 257.203 C 227.736 257.204,226.162 258.464,224.648 260.003 C 223.135 261.541,221.598 262.800,221.233 262.800 C 220.868 262.800,219.683 263.700,218.600 264.800 C 217.517 265.900,216.263 266.808,215.815 266.817 C 215.367 266.826,214.558 267.366,214.019 268.017 C 213.477 268.670,212.644 269.200,212.160 269.200 C 211.658 269.200,210.757 269.799,210.054 270.600 C 209.378 271.370,208.494 272.000,208.091 272.000 C 207.687 272.000,206.746 272.630,206.000 273.400 C 205.254 274.170,204.248 274.800,203.764 274.800 C 203.281 274.800,202.782 275.070,202.655 275.400 C 202.529 275.730,201.964 276.000,201.400 276.000 C 200.836 276.000,200.271 276.270,200.145 276.600 C 200.018 276.930,199.512 277.200,199.019 277.200 C 198.527 277.200,197.798 277.560,197.400 278.000 C 197.002 278.440,196.273 278.800,195.781 278.800 C 195.288 278.800,194.782 279.070,194.655 279.400 C 194.505 279.792,193.882 280.000,192.862 280.000 C 191.960 280.000,191.087 280.254,190.800 280.600 C 190.526 280.930,189.718 281.200,189.005 281.200 C 188.292 281.200,187.250 281.560,186.691 282.000 C 185.137 283.222,170.863 283.222,169.309 282.000 C 168.750 281.560,167.976 281.200,167.589 281.200 C 167.202 281.200,166.782 280.930,166.655 280.600 C 166.529 280.270,166.014 279.997,165.513 279.993 C 164.427 279.985,162.800 278.394,162.800 277.341 C 162.800 276.931,162.170 276.070,161.400 275.428 C 160.526 274.699,160.000 273.907,160.000 273.318 C 160.000 272.799,159.730 272.271,159.400 272.145 C 158.925 271.963,158.800 271.127,158.800 268.145 C 158.800 265.163,158.675 264.327,158.200 264.145 C 157.870 264.018,157.600 263.686,157.600 263.406 C 157.600 263.127,157.870 262.674,158.200 262.400 C 158.671 262.009,158.800 260.892,158.800 257.200 C 158.800 253.508,158.929 252.391,159.400 252.000 C 159.793 251.674,160.000 250.782,160.000 249.413 C 160.000 247.812,160.192 247.150,160.823 246.579 C 161.394 246.062,161.613 245.438,161.536 244.545 C 161.468 243.756,161.692 242.962,162.112 242.497 C 162.863 241.668,163.014 240.580,162.430 240.219 C 162.226 240.093,160.270 241.792,158.083 243.995 C 155.895 246.198,153.804 248.000,153.436 248.000 C 153.067 248.000,151.215 249.530,149.319 251.400 C 147.424 253.270,145.580 254.800,145.222 254.800 C 144.863 254.800,143.683 255.700,142.600 256.800 C 141.517 257.900,140.298 258.800,139.892 258.800 C 139.487 258.800,138.670 259.327,138.077 259.971 C 137.485 260.616,136.494 261.268,135.875 261.421 C 135.257 261.574,134.368 262.217,133.900 262.850 C 133.429 263.486,132.672 264.000,132.203 264.000 C 131.738 264.000,130.746 264.630,130.000 265.400 C 129.254 266.170,128.248 266.800,127.764 266.800 C 127.281 266.800,126.782 267.070,126.655 267.400 C 126.529 267.730,125.964 268.000,125.400 268.000 C 124.836 268.000,124.271 268.270,124.145 268.600 C 124.018 268.930,123.512 269.200,123.019 269.200 C 122.527 269.200,121.798 269.560,121.400 270.000 C 121.002 270.440,120.273 270.800,119.781 270.800 C 119.288 270.800,118.782 271.070,118.655 271.400 C 118.529 271.730,117.964 272.000,117.400 272.000 C 116.836 272.000,116.271 272.270,116.145 272.600 C 116.018 272.930,115.512 273.200,115.019 273.200 C 114.527 273.200,113.798 273.560,113.400 274.000 C 112.913 274.538,112.168 274.800,111.125 274.800 C 110.116 274.800,109.495 275.009,109.345 275.400 C 109.193 275.796,108.566 276.000,107.501 276.000 C 106.470 276.000,105.716 276.236,105.410 276.654 C 105.065 277.126,104.356 277.295,102.856 277.261 C 101.243 277.224,100.629 277.391,100.101 278.007 C 99.503 278.706,98.915 278.800,95.154 278.800 C 91.729 278.800,90.840 278.919,90.655 279.400 C 90.479 279.860,89.720 280.000,87.400 280.000 C 85.080 280.000,84.321 279.860,84.145 279.400 C 83.970 278.945,83.231 278.800,81.089 278.800 C 79.037 278.800,78.065 278.621,77.542 278.147 C 77.145 277.788,76.186 277.456,75.410 277.409 C 74.634 277.362,73.670 277.025,73.268 276.662 C 72.866 276.298,72.165 276.000,71.711 276.000 C 71.257 276.000,70.782 275.730,70.655 275.400 C 70.529 275.070,70.055 274.800,69.604 274.800 C 68.492 274.800,60.000 266.308,60.000 265.196 C 60.000 264.745,59.730 264.271,59.400 264.145 C 59.070 264.018,58.800 263.506,58.800 263.006 C 58.800 262.507,58.530 261.874,58.200 261.600 C 57.870 261.326,57.600 260.680,57.600 260.165 C 57.600 259.638,57.250 259.041,56.800 258.800 C 56.328 258.547,56.000 257.962,56.000 257.373 C 56.000 256.824,55.730 256.271,55.400 256.145 C 54.994 255.989,54.800 255.352,54.800 254.177 C 54.800 253.015,54.592 252.323,54.173 252.089 C 53.743 251.848,53.505 251.006,53.416 249.409 C 53.326 247.785,53.092 246.971,52.643 246.720 C 51.539 246.102,51.686 225.989,52.800 225.293 C 53.453 224.885,53.600 224.360,53.600 222.439 C 53.600 220.716,53.761 220.024,54.200 219.855 C 54.640 219.687,54.800 218.993,54.800 217.255 C 54.800 215.518,54.960 214.824,55.400 214.655 C 55.730 214.529,56.000 213.976,56.000 213.427 C 56.000 212.838,56.328 212.253,56.800 212.000 C 57.412 211.672,57.600 211.162,57.600 209.829 C 57.600 208.648,57.794 208.011,58.200 207.855 C 58.530 207.729,58.800 207.189,58.800 206.655 C 58.800 206.122,59.070 205.582,59.400 205.455 C 59.730 205.329,60.000 204.797,60.000 204.275 C 60.000 203.752,60.366 202.992,60.814 202.587 C 61.262 202.182,61.538 201.616,61.429 201.330 C 61.319 201.044,61.853 200.205,62.615 199.465 C 63.377 198.725,64.006 197.777,64.013 197.360 C 64.020 196.942,64.650 195.979,65.413 195.219 C 66.176 194.460,66.800 193.553,66.800 193.204 C 66.800 192.855,67.700 191.683,68.800 190.600 C 69.900 189.517,70.800 188.324,70.800 187.950 C 70.800 187.064,83.061 174.800,83.946 174.800 C 84.319 174.800,85.783 173.630,87.200 172.200 C 88.690 170.696,90.120 169.600,90.591 169.600 C 91.038 169.600,91.930 168.970,92.572 168.200 C 93.221 167.422,94.109 166.800,94.572 166.800 C 95.031 166.800,95.984 166.170,96.690 165.400 C 97.397 164.630,98.319 164.000,98.739 164.000 C 99.159 164.000,99.726 163.730,100.000 163.400 C 100.274 163.070,100.814 162.800,101.200 162.800 C 101.586 162.800,102.126 162.530,102.400 162.200 C 102.674 161.870,103.324 161.600,103.846 161.600 C 104.367 161.600,105.018 161.240,105.293 160.800 C 105.568 160.360,106.177 160.000,106.647 160.000 C 107.117 160.000,107.726 159.730,108.000 159.400 C 108.274 159.070,108.814 158.800,109.200 158.800 C 109.586 158.800,110.126 158.530,110.400 158.200 C 110.679 157.863,111.551 157.600,112.387 157.600 C 113.368 157.600,114.123 157.327,114.600 156.800 C 115.087 156.262,115.832 156.000,116.875 156.000 C 117.884 156.000,118.505 155.791,118.655 155.400 C 118.807 155.004,119.434 154.800,120.499 154.800 C 121.535 154.800,122.284 154.564,122.593 154.141 C 122.984 153.608,123.715 153.498,126.455 153.564 C 129.418 153.635,129.927 153.544,130.579 152.823 C 131.529 151.773,147.110 151.528,147.958 152.549 C 148.208 152.851,149.474 153.218,150.771 153.365 C 152.067 153.512,153.346 153.894,153.613 154.216 C 153.880 154.537,154.507 154.800,155.006 154.800 C 155.506 154.800,156.018 155.070,156.145 155.400 C 156.271 155.730,156.760 156.000,157.232 156.000 C 158.293 156.000,161.674 159.342,161.382 160.102 C 161.266 160.404,161.538 160.982,161.986 161.387 C 162.612 161.954,162.800 162.620,162.800 164.275 C 162.800 165.817,162.970 166.490,163.400 166.655 C 163.735 166.784,164.000 167.378,164.000 168.000 C 164.000 168.622,163.735 169.216,163.400 169.345 C 162.942 169.520,162.800 170.269,162.800 172.499 C 162.800 174.927,162.665 175.538,162.000 176.107 C 161.560 176.484,161.200 177.132,161.200 177.547 C 161.200 177.962,160.930 178.526,160.600 178.800 C 160.270 179.074,160.000 179.732,160.000 180.262 C 160.000 180.791,159.730 181.329,159.400 181.455 C 159.070 181.582,158.800 182.073,158.800 182.546 C 158.800 183.019,158.170 183.984,157.400 184.690 C 156.630 185.397,156.000 186.294,156.000 186.683 C 156.000 187.604,144.826 198.800,143.906 198.800 C 143.519 198.800,142.335 199.700,141.275 200.800 C 140.215 201.900,138.991 202.800,138.555 202.800 C 138.119 202.800,137.321 203.332,136.781 203.983 C 136.242 204.634,135.430 205.174,134.978 205.183 C 134.527 205.192,133.546 205.830,132.800 206.600 C 132.054 207.370,131.140 208.000,130.771 208.000 C 130.401 208.000,129.874 208.270,129.600 208.600 C 129.326 208.930,128.788 209.200,128.405 209.200 C 128.022 209.200,127.250 209.560,126.691 210.000 C 126.131 210.440,125.409 210.800,125.086 210.800 C 124.763 210.800,124.274 211.070,124.000 211.400 C 123.726 211.730,123.186 212.000,122.800 212.000 C 122.414 212.000,121.883 212.258,121.621 212.574 C 121.359 212.890,120.630 213.262,120.000 213.400 C 119.370 213.538,118.641 213.910,118.379 214.226 C 118.117 214.542,117.586 214.800,117.200 214.800 C 116.814 214.800,116.274 215.070,116.000 215.400 C 115.726 215.730,115.093 216.000,114.594 216.000 C 114.094 216.000,113.582 216.270,113.455 216.600 C 113.329 216.930,112.884 217.200,112.466 217.200 C 112.049 217.200,111.250 217.560,110.691 218.000 C 110.116 218.452,109.068 218.800,108.280 218.800 C 107.409 218.800,106.799 219.025,106.655 219.400 C 106.529 219.730,105.964 220.000,105.400 220.000 C 104.836 220.000,104.271 220.270,104.145 220.600 C 103.994 220.992,103.372 221.200,102.353 221.200 C 101.287 221.200,100.575 221.454,100.107 222.000 C 99.730 222.440,99.031 222.800,98.554 222.800 C 98.076 222.800,97.582 223.070,97.455 223.400 C 97.302 223.801,96.671 224.000,95.557 224.000 C 94.479 224.000,93.720 224.230,93.414 224.649 C 93.152 225.006,92.277 225.338,91.469 225.388 C 90.661 225.437,89.684 225.761,89.300 226.109 C 88.915 226.456,87.880 226.799,87.000 226.870 C 85.448 226.996,85.397 227.046,85.314 228.553 C 85.267 229.407,84.952 230.411,84.614 230.784 C 83.740 231.751,83.728 239.276,84.600 240.000 C 84.930 240.274,85.200 240.808,85.200 241.187 C 85.200 241.566,85.560 242.202,86.000 242.600 C 86.440 242.998,86.800 243.656,86.800 244.062 C 86.800 245.020,89.780 248.000,90.738 248.000 C 91.144 248.000,91.774 248.329,92.137 248.731 C 92.584 249.224,93.179 249.406,93.968 249.290 C 94.807 249.167,95.342 249.356,95.858 249.959 C 96.869 251.140,113.213 251.274,114.497 250.112 C 114.962 249.692,115.756 249.468,116.545 249.536 C 117.438 249.613,118.062 249.394,118.579 248.823 C 119.087 248.262,119.817 248.000,120.875 248.000 C 121.884 248.000,122.505 247.791,122.655 247.400 C 122.782 247.070,123.294 246.800,123.794 246.800 C 124.293 246.800,124.926 246.530,125.200 246.200 C 125.474 245.870,126.120 245.600,126.635 245.600 C 127.162 245.600,127.759 245.250,128.000 244.800 C 128.253 244.328,128.838 244.000,129.427 244.000 C 129.976 244.000,130.529 243.730,130.655 243.400 C 130.782 243.070,131.294 242.800,131.794 242.800 C 132.293 242.800,132.911 242.548,133.167 242.239 C 133.423 241.931,134.100 241.561,134.671 241.418 C 135.242 241.275,136.175 240.627,136.744 239.979 C 137.313 239.330,138.166 238.800,138.640 238.800 C 139.114 238.800,139.726 238.530,140.000 238.200 C 140.274 237.870,140.759 237.600,141.079 237.600 C 141.398 237.600,142.710 236.598,143.993 235.374 C 145.277 234.150,146.584 233.205,146.899 233.274 C 147.214 233.343,148.266 232.564,149.236 231.542 C 150.206 230.520,151.450 229.552,152.000 229.391 C 152.550 229.231,154.409 227.682,156.131 225.950 C 157.853 224.217,159.562 222.800,159.928 222.800 C 160.830 222.800,181.600 201.997,181.600 201.094 C 181.600 200.702,182.500 199.524,183.600 198.474 C 184.755 197.373,185.600 196.213,185.600 195.730 C 185.600 195.226,186.394 194.197,187.591 193.146 C 188.754 192.126,189.586 191.057,189.591 190.575 C 189.596 190.121,190.148 189.225,190.818 188.583 C 191.662 187.774,191.999 187.107,191.918 186.408 L 191.800 185.400 180.297 185.299 C 169.217 185.201,168.769 185.227,168.108 185.999 C 167.650 186.534,166.928 186.800,165.935 186.800 C 164.127 186.800,163.610 186.148,164.773 185.334 C 165.336 184.939,165.552 184.479,165.399 183.997 C 165.233 183.474,165.576 182.934,166.583 182.131 C 167.395 181.483,168.000 180.642,168.000 180.162 C 168.000 179.701,168.360 178.998,168.800 178.600 C 169.240 178.202,169.608 177.499,169.617 177.038 C 169.626 176.577,170.166 175.758,170.817 175.219 C 171.468 174.679,172.000 173.905,172.000 173.499 C 172.000 173.093,172.630 172.112,173.400 171.319 C 174.170 170.526,174.800 169.583,174.800 169.224 C 174.800 168.864,175.700 167.683,176.800 166.600 C 177.900 165.517,178.800 164.319,178.800 163.939 C 178.800 163.041,187.106 154.800,188.011 154.800 C 188.391 154.800,188.926 154.530,189.200 154.200 C 189.474 153.870,190.038 153.600,190.453 153.600 C 190.868 153.600,191.516 153.240,191.893 152.800 C 192.432 152.170,193.073 152.000,194.901 152.000 C 196.598 152.000,197.287 151.838,197.455 151.400 C 197.635 150.931,198.435 150.800,201.111 150.800 C 203.460 150.800,204.736 150.626,205.169 150.246 C 205.612 149.857,207.442 149.628,211.308 149.478 L 216.816 149.264 219.808 146.282 C 221.454 144.642,222.800 143.018,222.800 142.673 C 222.800 142.329,223.700 141.108,224.800 139.961 C 225.900 138.814,226.800 137.586,226.800 137.232 C 226.800 135.748,237.774 125.520,239.367 125.520 C 240.384 125.520,240.991 125.284,241.318 124.760 C 241.664 124.205,242.256 124.000,243.509 124.000 C 244.665 124.000,245.300 123.804,245.455 123.400 C 245.643 122.910,246.623 122.800,250.800 122.800 C 254.977 122.800,255.957 122.910,256.145 123.400 M130.655 171.400 C 130.505 171.792,129.882 172.000,128.862 172.000 C 127.960 172.000,127.087 172.254,126.800 172.600 C 126.521 172.937,125.649 173.200,124.813 173.200 C 123.832 173.200,123.077 173.473,122.600 174.000 C 122.202 174.440,121.566 174.800,121.187 174.800 C 120.808 174.800,120.274 175.070,120.000 175.400 C 119.726 175.730,119.159 176.000,118.739 176.000 C 118.319 176.000,117.397 176.630,116.690 177.400 C 115.940 178.218,115.025 178.800,114.490 178.800 C 113.987 178.800,113.471 179.070,113.345 179.400 C 113.218 179.730,112.723 180.000,112.246 180.000 C 111.707 180.000,110.397 180.989,108.800 182.600 C 107.383 184.030,105.922 185.200,105.554 185.200 C 104.668 185.200,98.800 191.050,98.800 191.933 C 98.800 192.312,97.540 193.871,96.001 195.399 C 94.241 197.145,93.275 198.405,93.398 198.793 C 93.516 199.165,93.039 199.872,92.197 200.574 C 91.413 201.228,90.800 202.108,90.800 202.581 C 90.800 203.044,90.440 203.730,90.000 204.107 C 89.560 204.484,89.200 205.132,89.200 205.547 C 89.200 205.962,88.930 206.526,88.600 206.800 C 88.270 207.074,88.000 207.717,88.000 208.229 C 88.000 208.741,87.705 209.325,87.344 209.527 C 86.983 209.729,86.814 210.098,86.967 210.347 C 87.365 210.990,88.613 210.908,89.200 210.200 C 89.474 209.870,90.120 209.600,90.635 209.600 C 91.162 209.600,91.759 209.250,92.000 208.800 C 92.314 208.213,92.838 208.000,93.965 208.000 C 94.843 208.000,95.715 207.743,96.000 207.400 C 96.274 207.070,96.814 206.800,97.200 206.800 C 97.586 206.800,98.117 206.542,98.379 206.226 C 98.641 205.910,99.395 205.533,100.055 205.388 C 100.714 205.243,101.351 204.872,101.470 204.562 C 101.588 204.253,102.094 204.000,102.594 204.000 C 103.093 204.000,103.726 203.730,104.000 203.400 C 104.274 203.070,104.814 202.800,105.200 202.800 C 105.586 202.800,106.126 202.530,106.400 202.200 C 106.674 201.870,107.293 201.600,107.775 201.600 C 108.275 201.600,109.186 200.998,109.892 200.200 C 110.574 199.430,111.485 198.800,111.917 198.800 C 112.349 198.800,112.926 198.530,113.200 198.200 C 113.474 197.870,114.061 197.600,114.505 197.600 C 114.956 197.600,116.147 196.716,117.200 195.600 C 118.238 194.500,119.404 193.600,119.792 193.600 C 120.658 193.600,130.800 183.527,130.800 182.666 C 130.800 182.326,131.700 181.108,132.800 179.961 C 135.250 177.406,135.740 173.504,133.837 171.700 C 132.754 170.674,130.998 170.508,130.655 171.400 " stroke="none" fill="#040404" fill-rule="evenodd"></path>
  </g>
</svg>