<?xml version="1.0" standalone="no"?>
<!DOCTYPE svg PUBLIC "-//W3C//DTD SVG 20010904//EN"
 "http://www.w3.org/TR/2001/REC-SVG-20010904/DTD/svg10.dtd">
<svg version="1.0" xmlns="http://www.w3.org/2000/svg"
 width="960.000000pt" height="960.000000pt" viewBox="0 0 960.000000 960.000000"
 preserveAspectRatio="xMidYMid meet">

<g transform="translate(0.000000,960.000000) scale(0.100000,-0.100000)"
fill="#000000" stroke="none">
<path d="M4325 9034 c-66 -7 -167 -21 -224 -31 l-105 -18 -1 -75 c-1 -55 -7
-89 -24 -128 -30 -66 -110 -141 -177 -165 -141 -50 -305 16 -370 149 -25 51
-29 55 -53 49 -68 -17 -431 -173 -431 -185 0 -4 7 -25 16 -46 23 -55 21 -160
-4 -218 -33 -74 -80 -124 -148 -157 -51 -25 -73 -30 -133 -30 -91 0 -157 29
-223 96 l-47 48 -63 -43 c-85 -59 -244 -184 -290 -228 -38 -36 -38 -36 -18
-57 64 -68 85 -215 43 -306 -30 -66 -86 -124 -151 -156 -47 -23 -70 -28 -132
-28 -74 1 -116 15 -193 68 -16 10 -24 6 -64 -38 -25 -27 -94 -115 -154 -194
l-107 -144 47 -43 c31 -28 58 -65 76 -105 24 -55 27 -71 23 -138 -7 -122 -65
-208 -172 -256 -90 -41 -134 -41 -262 0 -17 5 -25 -3 -54 -67 -46 -101 -150
-360 -150 -375 0 -6 21 -21 47 -34 60 -29 119 -89 146 -148 16 -34 22 -66 22
-126 0 -94 -22 -150 -86 -214 -62 -62 -120 -86 -214 -87 l-80 -2 -7 -33 c-10
-53 -46 -317 -53 -391 -5 -66 -5 -68 18 -68 93 0 205 -78 254 -178 22 -46 27
-69 27 -127 -2 -146 -102 -264 -252 -296 l-52 -11 5 -51 c19 -171 27 -233 41
-330 l16 -107 68 1 c103 2 183 -31 247 -104 40 -46 73 -135 73 -197 0 -108
-73 -225 -169 -271 -28 -13 -51 -27 -51 -32 0 -25 166 -426 184 -444 3 -3 31
2 62 12 144 45 295 -19 366 -155 19 -37 23 -60 23 -135 0 -81 -3 -95 -30 -144
-16 -30 -47 -67 -67 -84 -21 -17 -38 -35 -38 -40 0 -8 154 -225 169 -237 3 -3
32 -38 65 -78 32 -39 60 -72 61 -72 2 0 26 15 54 34 113 77 279 58 379 -42
103 -103 118 -263 36 -382 l-34 -50 118 -94 c64 -51 152 -119 196 -150 l78
-56 40 44 c82 94 218 129 333 85 155 -58 236 -232 181 -388 -9 -24 -16 -45
-16 -48 0 -9 230 -108 366 -158 l91 -34 22 48 c68 152 254 219 404 146 113
-56 171 -149 171 -277 1 -75 2 -78 26 -83 76 -16 307 -45 380 -47 l84 -3 7 41
c10 57 50 132 91 171 18 18 59 44 92 59 51 23 68 26 130 22 78 -5 132 -28 192
-80 41 -36 94 -138 94 -181 0 -16 7 -30 16 -34 19 -7 279 21 402 44 l83 15 -7
43 c-15 100 39 219 127 282 132 94 297 72 408 -53 22 -25 45 -61 51 -79 l11
-34 92 33 c115 42 347 142 361 156 7 7 6 17 -3 33 -24 37 -27 167 -5 228 26
70 90 141 156 169 126 54 250 30 345 -67 l53 -54 117 87 c65 48 153 116 196
152 l78 64 -24 32 c-42 54 -71 149 -64 209 19 159 145 276 298 277 75 0 137
-18 185 -55 18 -14 35 -25 38 -25 7 0 184 222 250 314 l57 79 -34 22 c-107 73
-149 241 -91 365 51 110 138 170 259 178 51 3 81 0 109 -12 21 -9 44 -16 51
-16 19 0 195 405 195 448 0 5 -23 19 -51 33 -28 13 -69 43 -90 67 -176 201
-30 511 238 505 35 -1 64 1 67 5 14 24 72 470 62 480 -3 2 -26 8 -51 13 -99
18 -174 76 -220 169 -37 74 -39 170 -6 248 42 95 165 182 258 182 24 0 24 1
18 63 -12 114 -36 301 -48 366 l-12 63 -80 2 c-65 1 -90 7 -132 29 -64 33
-114 84 -144 145 -32 64 -32 186 -2 254 27 57 88 119 148 147 25 12 45 26 45
32 0 22 -176 449 -185 449 -1 0 -22 -7 -45 -15 -67 -24 -175 -19 -236 9 -60
28 -115 80 -146 139 -19 35 -23 58 -23 137 0 86 3 100 28 142 15 26 47 64 71
85 l44 38 -46 65 c-25 36 -89 119 -141 185 -53 65 -99 124 -103 129 -4 6 -39
-7 -84 -30 -68 -34 -86 -39 -148 -39 -169 0 -301 132 -300 300 0 70 25 141 69
201 15 20 10 25 -137 140 -189 148 -224 174 -235 174 -5 0 -29 -20 -52 -45
-63 -67 -110 -88 -207 -93 -72 -4 -89 -1 -136 20 -67 31 -123 87 -154 153 -29
60 -33 174 -9 232 8 19 15 39 15 43 0 13 -418 190 -449 190 -3 0 -19 -25 -35
-56 -57 -109 -166 -170 -288 -161 -78 5 -135 31 -195 89 -62 60 -88 126 -87
219 l1 76 -76 12 c-123 19 -291 40 -355 43 l-59 3 -12 -55 c-20 -99 -68 -163
-157 -210 -53 -28 -72 -33 -132 -34 -153 -1 -278 105 -304 255 -9 53 -5 52
-167 33z m-519 -1749 c194 -31 327 -96 450 -219 117 -117 179 -234 227 -421
18 -73 20 -121 24 -542 l5 -463 -340 0 -341 0 -3 413 -3 413 -30 59 c-20 39
-45 69 -73 89 -38 27 -51 30 -117 30 -66 0 -79 -3 -116 -29 -50 -35 -85 -97
-99 -176 -7 -37 -9 -608 -8 -1695 l3 -1639 25 -50 c32 -64 71 -85 160 -85 88
0 158 33 197 91 l28 43 3 488 3 488 -115 0 -115 0 -3 296 c-2 163 -1 298 1
300 2 2 208 4 458 4 l453 0 0 -770 c0 -481 -4 -807 -11 -867 -49 -442 -304
-685 -758 -723 -127 -10 -312 0 -426 25 -344 74 -529 296 -575 690 -6 58 -10
677 -10 1755 0 1411 3 1681 15 1768 33 231 109 387 257 528 113 108 265 177
444 203 96 14 292 12 390 -4z m2348 -27 c2 -7 27 -193 56 -413 28 -220 60
-461 70 -535 11 -74 33 -236 49 -360 84 -618 246 -1815 277 -2045 19 -143 46
-343 60 -445 14 -102 38 -284 54 -405 49 -369 60 -456 75 -564 8 -58 15 -115
15 -128 l0 -23 -357 2 -358 3 -17 135 c-91 726 -129 1018 -133 1038 -5 22 -6
22 -205 22 -110 0 -200 -1 -200 -2 0 -2 -16 -127 -35 -278 -20 -151 -54 -416
-76 -589 -22 -173 -42 -318 -45 -323 -3 -4 -165 -8 -360 -8 l-354 0 0 25 c0
13 11 107 25 207 13 101 35 271 49 378 36 275 121 918 221 1660 192 1424 217
1611 235 1750 11 80 42 315 70 522 27 208 50 380 50 383 0 3 187 5 415 5 324
0 416 -3 419 -12z"/>
<path d="M5677 4705 c-98 -20 -193 -106 -218 -198 -17 -64 -7 -164 21 -221 84
-165 309 -206 457 -82 79 67 116 218 76 318 -54 138 -191 212 -336 183z"/>
</g>
</svg>
