<svg viewBox="0 0 28 28" fill="none" stroke="none"
  xmlns="http://www.w3.org/2000/svg">
  <path d="M13.9198 27.877C21.6075 27.877 27.8396 21.6365 27.8396 13.9385C27.8396 6.24048 21.6075 0 13.9198 0C6.2321 0 0 6.24048 0 13.9385C0 21.6365 6.2321 27.877 13.9198 27.877Z" fill="#43EE91" stroke="none"></path>
  <path d="M13.9202 3.97424L22.2409 9.29812C22.2444 9.30048 22.2474 9.30364 22.2495 9.30735C22.2516 9.31106 22.2528 9.31522 22.253 9.31949V16.5611C22.2529 16.5657 22.2516 16.5701 22.2493 16.574C22.247 16.5779 22.2436 16.5811 22.2396 16.5832C22.2357 16.5854 22.2312 16.5865 22.2267 16.5863C22.2221 16.5862 22.2177 16.5849 22.2139 16.5825L13.9202 11.2757V3.97424Z" fill="#FFFFFF" stroke="none"></path>
  <path d="M13.92 3.97424L5.59925 9.29812C5.59556 9.30034 5.59251 9.30347 5.59039 9.30721C5.58828 9.31095 5.58716 9.31518 5.58716 9.31949V16.5611C5.58723 16.5657 5.5885 16.5701 5.59085 16.574C5.59319 16.5779 5.59652 16.5811 5.6005 16.5832C5.60448 16.5854 5.60896 16.5865 5.61348 16.5863C5.61801 16.5862 5.62243 16.5849 5.62627 16.5825L13.9214 11.2757L13.92 3.97424Z" fill="#005450" stroke="none"></path>
  <path d="M16.0654 17.3151H11.777C11.775 17.3151 11.7734 17.3167 11.7734 17.3186V21.3229C11.7734 21.3249 11.775 21.3265 11.777 21.3265H16.0654C16.0673 21.3265 16.0689 21.3249 16.0689 21.3229V17.3186C16.0689 17.3167 16.0673 17.3151 16.0654 17.3151Z" fill="#FFFFFF" stroke="none"></path>
  <path d="M13.9198 27.877C21.6075 27.877 27.8396 21.6365 27.8396 13.9385C27.8396 6.24048 21.6075 0 13.9198 0C6.2321 0 0 6.24048 0 13.9385C0 21.6365 6.2321 27.877 13.9198 27.877Z" fill="#43EE91" stroke="none"></path>
  <path d="M13.9202 3.97424L22.2409 9.29812C22.2444 9.30048 22.2474 9.30364 22.2495 9.30735C22.2516 9.31106 22.2528 9.31522 22.253 9.31949V16.5611C22.2529 16.5657 22.2516 16.5701 22.2493 16.574C22.247 16.5779 22.2436 16.5811 22.2396 16.5832C22.2357 16.5854 22.2312 16.5865 22.2267 16.5863C22.2221 16.5862 22.2177 16.5849 22.2139 16.5825L13.9202 11.2757V3.97424Z" fill="#FFFFFF" stroke="none"></path>
  <path d="M13.92 3.97424L5.59925 9.29812C5.59556 9.30034 5.59251 9.30347 5.59039 9.30721C5.58828 9.31095 5.58716 9.31518 5.58716 9.31949V16.5611C5.58723 16.5657 5.5885 16.5701 5.59085 16.574C5.59319 16.5779 5.59652 16.5811 5.6005 16.5832C5.60448 16.5854 5.60896 16.5865 5.61348 16.5863C5.61801 16.5862 5.62243 16.5849 5.62627 16.5825L13.9214 11.2757L13.92 3.97424Z" fill="#005450" stroke="none"></path>
  <path d="M16.0654 17.3151H11.777C11.775 17.3151 11.7734 17.3167 11.7734 17.3186V21.3229C11.7734 21.3249 11.775 21.3265 11.777 21.3265H16.0654C16.0673 21.3265 16.0689 21.3249 16.0689 21.3229V17.3186C16.0689 17.3167 16.0673 17.3151 16.0654 17.3151Z" fill="#FFFFFF" stroke="none"></path>
</svg>